<svg width="830" height="394" viewBox="0 0 830 394" fill="none" xmlns="http://www.w3.org/2000/svg">
<g clip-path="url(#clip0_925_35093)">
<rect x="224" y="130" width="390" height="176" rx="8" fill="#D9D9D9"/>
<path d="M467.794 221.309C467.111 221.31 466.589 221.928 466.744 222.599C468.273 229.181 473.234 234.707 483.352 234.707C490.822 234.707 495.751 231.517 497.98 227.422C498.186 227.043 498.572 226.791 499 226.791H509.848C510.574 226.791 511.104 227.487 510.88 228.183C507.034 240.158 495.694 244.966 483.368 244.966C468.638 244.966 453.232 236.755 453.232 217.503C453.232 198.25 468.428 190.039 483.258 190.039C498.041 190.039 513.381 199.027 512.392 220.251C512.365 220.836 511.881 221.299 511.3 221.299L467.794 221.309ZM467.486 210.106C467.204 210.804 467.736 211.536 468.483 211.536H497.445C498.165 211.536 498.695 210.852 498.469 210.162C496.635 204.556 492.23 200.204 483.258 200.204C474.785 200.204 469.738 204.528 467.486 210.106Z" fill="#008FF5"/>
<path d="M571 209.66V243.912C571 244.22 570.752 244.47 570.446 244.47H556.69C556.385 244.47 556.137 244.22 556.137 243.912V213.406C556.137 207.098 552.516 201.684 543.322 201.684C534.127 201.684 530.036 207.305 530.036 213.406V243.912C530.036 244.22 529.788 244.47 529.483 244.47H515.71C515.404 244.47 515.156 244.22 515.156 243.912V192.468C515.156 192.159 515.404 191.909 515.71 191.909H529.471C529.777 191.909 530.025 192.159 530.025 192.468V197.567C530.025 198.11 530.751 198.362 531.115 197.962C534.011 194.78 540.081 190.559 549.776 190.559C563.178 190.559 571 197.815 571 209.66Z" fill="#008FF5"/>
<path d="M310.099 191.094C309.487 191.094 308.992 191.594 308.992 192.21V202.426C308.992 202.889 308.708 203.305 308.278 203.469L281.392 213.784C280.667 214.062 279.891 213.522 279.891 212.741V192.21C279.891 191.594 279.395 191.094 278.784 191.094H266.107C265.496 191.094 265 191.594 265 192.21V242.789C265 243.406 265.496 243.906 266.107 243.906H278.784C279.395 243.906 279.891 243.406 279.891 242.789V229.944C279.891 229.481 280.175 229.066 280.604 228.901L312.063 216.828C313.093 216.433 314.001 217.633 313.35 218.531L309.205 224.247C309.067 224.438 308.992 224.669 308.992 224.906V242.789C308.992 243.406 309.487 243.906 310.099 243.906H322.776C323.387 243.906 323.883 243.406 323.883 242.789V192.21C323.883 191.594 323.387 191.094 322.776 191.094H310.099Z" fill="#008FF5"/>
<path d="M391.837 217.536C391.837 197.318 374.334 190 359.221 190C344.109 190 326.6 197.318 326.6 217.536C326.6 237.754 344.109 245 359.221 245C364.53 245 373.614 242.499 373.614 242.499C374.04 242.375 374.488 242.356 374.923 242.444C375.357 242.531 375.765 242.723 376.11 243.002C376.831 243.601 377.734 243.932 378.668 243.939H390.16C391.073 243.939 391.311 243.381 390.713 242.717L385.731 237.319C385.427 236.964 385.245 236.519 385.213 236.051C385.181 235.583 385.301 235.117 385.554 234.723C385.554 234.723 391.837 225.686 391.837 217.536ZM375.54 224.235C375.247 225.106 374.5 225.267 373.88 224.586L372.468 223.051C371.721 222.321 370.739 221.883 369.7 221.818H358.114C357.201 221.818 356.963 222.376 357.56 223.04L369.407 235.717C370.032 236.387 369.85 236.66 369.003 236.32L364.796 234.656C363.771 234.295 362.683 234.154 361.602 234.243C360.809 234.326 360.012 234.366 359.216 234.361C348.072 234.361 341.712 227.958 341.712 217.536C341.712 207.115 348.072 200.639 359.221 200.639C370.37 200.639 376.725 207.126 376.725 217.536C376.639 219.819 376.24 222.079 375.54 224.251V224.235Z" fill="#008FF5"/>
<path d="M418.126 233.194C417.631 233.194 417.385 232.589 417.737 232.238L449.604 200.535C449.71 200.43 449.769 200.287 449.769 200.138V191.652C449.769 191.344 449.521 191.094 449.216 191.094H396.533C396.227 191.094 395.979 191.344 395.979 191.652V201.248C395.979 201.556 396.227 201.806 396.533 201.806H420.967H427.627H433.498C434.128 201.806 434.269 202.697 433.67 202.894L423.083 206.392C423.002 206.419 422.928 206.465 422.868 206.525L394.722 234.459C394.616 234.564 394.557 234.707 394.557 234.856V243.347C394.557 243.656 394.804 243.906 395.11 243.906H449.963C450.269 243.906 450.517 243.656 450.517 243.347V233.752C450.517 233.444 450.269 233.194 449.963 233.194H418.126Z" fill="#008FF5"/>
</g>
<g clip-path="url(#clip1_925_35093)">
<rect x="224" y="43" width="98" height="75" rx="8" fill="#D9D9D9"/>
<path d="M243.948 91H240.686L248.014 70.6364H251.564L258.892 91H255.631L249.874 74.3352H249.715L243.948 91ZM244.494 83.0256H255.074V85.6108H244.494V83.0256ZM267.752 97.0455C266.539 97.0455 265.494 96.8864 264.619 96.5682C263.751 96.25 263.042 95.8291 262.492 95.3054C261.941 94.7817 261.53 94.2083 261.259 93.5852L263.814 92.5312C263.993 92.8229 264.232 93.1312 264.53 93.456C264.835 93.7874 265.246 94.0691 265.763 94.3011C266.287 94.5331 266.959 94.6491 267.781 94.6491C268.908 94.6491 269.84 94.3741 270.575 93.8239C271.311 93.2803 271.679 92.4119 271.679 91.2188V88.2159H271.49C271.311 88.5407 271.053 88.902 270.715 89.2997C270.383 89.6974 269.926 90.0421 269.343 90.3338C268.759 90.6255 268 90.7713 267.066 90.7713C265.859 90.7713 264.772 90.4896 263.804 89.9261C262.843 89.3561 262.081 88.5175 261.517 87.4105C260.96 86.2969 260.682 84.928 260.682 83.304C260.682 81.6799 260.957 80.2879 261.507 79.1278C262.064 77.9678 262.826 77.0795 263.794 76.4631C264.762 75.84 265.859 75.5284 267.085 75.5284C268.033 75.5284 268.799 75.6875 269.382 76.0057C269.966 76.3172 270.42 76.6818 270.744 77.0994C271.076 77.517 271.331 77.8849 271.51 78.2031H271.729V75.7273H274.642V91.3381C274.642 92.6506 274.337 93.7277 273.727 94.5696C273.118 95.4115 272.292 96.0346 271.252 96.4389C270.218 96.8433 269.051 97.0455 267.752 97.0455ZM267.722 88.3054C268.577 88.3054 269.299 88.1065 269.889 87.7088C270.486 87.3045 270.937 86.7277 271.242 85.9787C271.553 85.223 271.709 84.3182 271.709 83.2642C271.709 82.2367 271.557 81.3319 271.252 80.5497C270.947 79.7675 270.499 79.1577 269.909 78.7202C269.319 78.276 268.59 78.054 267.722 78.054C266.827 78.054 266.081 78.286 265.485 78.75C264.888 79.2074 264.437 79.8305 264.132 80.6193C263.834 81.4081 263.685 82.2898 263.685 83.2642C263.685 84.2652 263.837 85.1435 264.142 85.8991C264.447 86.6548 264.898 87.2448 265.494 87.669C266.098 88.0933 266.84 88.3054 267.722 88.3054ZM278.629 91V75.7273H281.602V91H278.629ZM280.131 73.3707C279.614 73.3707 279.17 73.1984 278.798 72.8537C278.434 72.5024 278.252 72.0848 278.252 71.6009C278.252 71.1103 278.434 70.6927 278.798 70.348C279.17 69.9967 279.614 69.821 280.131 69.821C280.648 69.821 281.089 69.9967 281.453 70.348C281.825 70.6927 282.01 71.1103 282.01 71.6009C282.01 72.0848 281.825 72.5024 281.453 72.8537C281.089 73.1984 280.648 73.3707 280.131 73.3707ZM288.575 70.6364V91H285.602V70.6364H288.575ZM299.157 91.3082C297.652 91.3082 296.356 90.9867 295.269 90.3438C294.189 89.6941 293.354 88.7827 292.764 87.6094C292.18 86.4295 291.889 85.0473 291.889 83.4631C291.889 81.8987 292.18 80.5199 292.764 79.3267C293.354 78.1335 294.176 77.2022 295.23 76.5327C296.29 75.8632 297.53 75.5284 298.948 75.5284C299.81 75.5284 300.645 75.6709 301.454 75.956C302.263 76.241 302.989 76.6884 303.632 77.2983C304.275 77.9081 304.782 78.7003 305.153 79.6747C305.524 80.6425 305.71 81.8191 305.71 83.2045V84.2585H293.569V82.0312H302.796C302.796 81.2491 302.637 80.5563 302.319 79.9531C302.001 79.3433 301.553 78.8627 300.977 78.5114C300.407 78.16 299.737 77.9844 298.968 77.9844C298.133 77.9844 297.404 78.1899 296.781 78.6009C296.164 79.0052 295.687 79.5355 295.349 80.1918C295.017 80.8414 294.852 81.5473 294.852 82.3097V84.0497C294.852 85.0705 295.031 85.9389 295.389 86.6548C295.753 87.3707 296.26 87.9176 296.91 88.2955C297.56 88.6667 298.319 88.8523 299.187 88.8523C299.75 88.8523 300.264 88.7727 300.728 88.6136C301.192 88.4479 301.593 88.2027 301.931 87.8778C302.269 87.553 302.528 87.152 302.707 86.6747L305.521 87.1818C305.295 88.0104 304.891 88.7363 304.308 89.3594C303.731 89.9759 303.005 90.4564 302.13 90.8011C301.262 91.1392 300.271 91.3082 299.157 91.3082Z" fill="#67747E"/>
</g>
<g clip-path="url(#clip2_925_35093)">
<rect x="629" y="130" width="64" height="64" rx="8" fill="#D9D9D9"/>
<path d="M650.957 172H647.696L655.024 151.636H658.574L665.902 172H662.641L656.884 155.335H656.724L650.957 172ZM651.504 164.026H662.084V166.611H651.504V164.026ZM671.915 151.636V172H668.843V151.636H671.915Z" fill="#67747E"/>
</g>
<g clip-path="url(#clip3_925_35093)">
<rect x="628" y="208" width="202" height="74" rx="8" fill="#D9D9D9"/>
<path d="M654.957 255H651.696L659.024 234.636H662.574L669.902 255H666.641L660.884 238.335H660.724L654.957 255ZM655.504 247.026H666.084V249.611H655.504V247.026ZM682.279 248.666V239.727H685.262V255H682.338V252.355H682.179C681.828 253.17 681.265 253.85 680.489 254.393C679.72 254.93 678.762 255.199 677.615 255.199C676.634 255.199 675.766 254.983 675.01 254.553C674.261 254.115 673.671 253.469 673.24 252.614C672.816 251.759 672.604 250.701 672.604 249.442V239.727H675.577V249.084C675.577 250.125 675.865 250.953 676.442 251.57C677.019 252.186 677.768 252.494 678.689 252.494C679.246 252.494 679.8 252.355 680.35 252.077C680.907 251.798 681.367 251.377 681.732 250.814C682.103 250.25 682.285 249.535 682.279 248.666ZM696.386 239.727V242.114H688.043V239.727H696.386ZM690.281 236.068H693.254V250.516C693.254 251.092 693.34 251.527 693.512 251.818C693.684 252.103 693.906 252.299 694.178 252.405C694.457 252.504 694.758 252.554 695.083 252.554C695.322 252.554 695.531 252.537 695.71 252.504C695.888 252.471 696.028 252.445 696.127 252.425L696.664 254.881C696.492 254.947 696.246 255.013 695.928 255.08C695.61 255.152 695.212 255.192 694.735 255.199C693.953 255.212 693.224 255.073 692.548 254.781C691.871 254.49 691.325 254.039 690.907 253.429C690.489 252.819 690.281 252.054 690.281 251.132V236.068ZM705.944 255.308C704.512 255.308 703.262 254.98 702.195 254.324C701.128 253.668 700.299 252.75 699.709 251.57C699.119 250.39 698.824 249.011 698.824 247.433C698.824 245.849 699.119 244.464 699.709 243.277C700.299 242.09 701.128 241.169 702.195 240.513C703.262 239.857 704.512 239.528 705.944 239.528C707.375 239.528 708.625 239.857 709.692 240.513C710.759 241.169 711.588 242.09 712.178 243.277C712.768 244.464 713.063 245.849 713.063 247.433C713.063 249.011 712.768 250.39 712.178 251.57C711.588 252.75 710.759 253.668 709.692 254.324C708.625 254.98 707.375 255.308 705.944 255.308ZM705.953 252.812C706.882 252.812 707.65 252.567 708.26 252.077C708.87 251.586 709.321 250.933 709.613 250.118C709.911 249.303 710.06 248.404 710.06 247.423C710.06 246.449 709.911 245.554 709.613 244.739C709.321 243.917 708.87 243.257 708.26 242.76C707.65 242.263 706.882 242.014 705.953 242.014C705.019 242.014 704.243 242.263 703.627 242.76C703.017 243.257 702.563 243.917 702.265 244.739C701.973 245.554 701.827 246.449 701.827 247.423C701.827 248.404 701.973 249.303 702.265 250.118C702.563 250.933 703.017 251.586 703.627 252.077C704.243 252.567 705.019 252.812 705.953 252.812ZM716.381 255V239.727H719.235V242.213H719.424C719.742 241.371 720.263 240.715 720.985 240.244C721.708 239.767 722.573 239.528 723.58 239.528C724.601 239.528 725.456 239.767 726.146 240.244C726.842 240.722 727.355 241.378 727.687 242.213H727.846C728.21 241.398 728.79 240.748 729.586 240.264C730.381 239.774 731.329 239.528 732.43 239.528C733.815 239.528 734.945 239.963 735.82 240.831C736.702 241.699 737.143 243.009 737.143 244.759V255H734.17V245.037C734.17 244.003 733.888 243.254 733.325 242.79C732.761 242.326 732.088 242.094 731.306 242.094C730.338 242.094 729.586 242.392 729.049 242.989C728.512 243.579 728.244 244.338 728.244 245.266V255H725.281V244.848C725.281 244.019 725.022 243.353 724.505 242.849C723.988 242.346 723.315 242.094 722.487 242.094C721.923 242.094 721.403 242.243 720.925 242.541C720.455 242.833 720.074 243.241 719.782 243.764C719.497 244.288 719.354 244.894 719.354 245.584V255H716.381ZM745.572 255.338C744.604 255.338 743.729 255.159 742.947 254.801C742.165 254.437 741.545 253.91 741.088 253.22C740.637 252.531 740.412 251.686 740.412 250.685C740.412 249.823 740.577 249.114 740.909 248.557C741.24 248 741.688 247.559 742.251 247.234C742.815 246.91 743.444 246.664 744.14 246.499C744.836 246.333 745.546 246.207 746.268 246.121C747.183 246.015 747.925 245.929 748.495 245.862C749.065 245.789 749.48 245.673 749.738 245.514C749.997 245.355 750.126 245.097 750.126 244.739V244.669C750.126 243.801 749.881 243.128 749.39 242.651C748.906 242.173 748.184 241.935 747.223 241.935C746.222 241.935 745.433 242.157 744.856 242.601C744.286 243.038 743.892 243.526 743.673 244.062L740.879 243.426C741.21 242.498 741.694 241.749 742.331 241.179C742.974 240.602 743.713 240.185 744.548 239.926C745.383 239.661 746.261 239.528 747.183 239.528C747.793 239.528 748.439 239.601 749.122 239.747C749.811 239.886 750.454 240.145 751.051 240.523C751.654 240.901 752.148 241.441 752.532 242.143C752.917 242.839 753.109 243.744 753.109 244.858V255H750.206V252.912H750.086C749.894 253.296 749.606 253.674 749.221 254.045C748.837 254.417 748.343 254.725 747.74 254.97C747.136 255.215 746.414 255.338 745.572 255.338ZM746.218 252.952C747.04 252.952 747.743 252.789 748.326 252.464C748.916 252.14 749.364 251.715 749.669 251.192C749.98 250.661 750.136 250.095 750.136 249.491V247.523C750.03 247.629 749.824 247.728 749.52 247.821C749.221 247.907 748.88 247.983 748.495 248.05C748.111 248.109 747.736 248.166 747.372 248.219C747.007 248.265 746.702 248.305 746.457 248.338C745.88 248.411 745.353 248.534 744.876 248.706C744.405 248.878 744.028 249.127 743.743 249.452C743.464 249.77 743.325 250.194 743.325 250.724C743.325 251.46 743.597 252.017 744.14 252.395C744.684 252.766 745.377 252.952 746.218 252.952ZM764.198 239.727V242.114H755.856V239.727H764.198ZM758.093 236.068H761.066V250.516C761.066 251.092 761.152 251.527 761.325 251.818C761.497 252.103 761.719 252.299 761.991 252.405C762.269 252.504 762.571 252.554 762.896 252.554C763.134 252.554 763.343 252.537 763.522 252.504C763.701 252.471 763.84 252.445 763.94 252.425L764.477 254.881C764.304 254.947 764.059 255.013 763.741 255.08C763.423 255.152 763.025 255.192 762.548 255.199C761.765 255.212 761.036 255.073 760.36 254.781C759.684 254.49 759.137 254.039 758.719 253.429C758.302 252.819 758.093 252.054 758.093 251.132V236.068ZM767.487 255V239.727H770.46V255H767.487ZM768.988 237.371C768.471 237.371 768.027 237.198 767.656 236.854C767.291 236.502 767.109 236.085 767.109 235.601C767.109 235.11 767.291 234.693 767.656 234.348C768.027 233.997 768.471 233.821 768.988 233.821C769.505 233.821 769.946 233.997 770.311 234.348C770.682 234.693 770.868 235.11 770.868 235.601C770.868 236.085 770.682 236.502 770.311 236.854C769.946 237.198 769.505 237.371 768.988 237.371ZM780.893 255.308C779.461 255.308 778.211 254.98 777.144 254.324C776.077 253.668 775.248 252.75 774.658 251.57C774.068 250.39 773.773 249.011 773.773 247.433C773.773 245.849 774.068 244.464 774.658 243.277C775.248 242.09 776.077 241.169 777.144 240.513C778.211 239.857 779.461 239.528 780.893 239.528C782.325 239.528 783.574 239.857 784.641 240.513C785.709 241.169 786.537 242.09 787.127 243.277C787.717 244.464 788.012 245.849 788.012 247.433C788.012 249.011 787.717 250.39 787.127 251.57C786.537 252.75 785.709 253.668 784.641 254.324C783.574 254.98 782.325 255.308 780.893 255.308ZM780.903 252.812C781.831 252.812 782.6 252.567 783.21 252.077C783.819 251.586 784.27 250.933 784.562 250.118C784.86 249.303 785.009 248.404 785.009 247.423C785.009 246.449 784.86 245.554 784.562 244.739C784.27 243.917 783.819 243.257 783.21 242.76C782.6 242.263 781.831 242.014 780.903 242.014C779.968 242.014 779.192 242.263 778.576 242.76C777.966 243.257 777.512 243.917 777.214 244.739C776.922 245.554 776.776 246.449 776.776 247.423C776.776 248.404 776.922 249.303 777.214 250.118C777.512 250.933 777.966 251.586 778.576 252.077C779.192 252.567 779.968 252.812 780.903 252.812ZM794.304 245.932V255H791.331V239.727H794.184V242.213H794.373C794.725 241.404 795.275 240.755 796.024 240.264C796.779 239.774 797.731 239.528 798.877 239.528C799.918 239.528 800.83 239.747 801.612 240.185C802.394 240.616 803.001 241.259 803.431 242.114C803.862 242.969 804.078 244.026 804.078 245.286V255H801.105V245.643C801.105 244.536 800.816 243.671 800.24 243.048C799.663 242.419 798.871 242.104 797.863 242.104C797.174 242.104 796.561 242.253 796.024 242.551C795.493 242.849 795.073 243.287 794.761 243.864C794.456 244.434 794.304 245.123 794.304 245.932Z" fill="#67747E"/>
</g>
<g clip-path="url(#clip4_925_35093)">
<rect x="109" y="69" width="101" height="105" rx="8" fill="#D9D9D9"/>
<path d="M139.151 118.259H136.048C135.929 117.596 135.707 117.012 135.382 116.509C135.057 116.005 134.66 115.577 134.189 115.226C133.718 114.875 133.191 114.609 132.608 114.43C132.031 114.251 131.418 114.162 130.768 114.162C129.595 114.162 128.545 114.457 127.616 115.047C126.695 115.637 125.966 116.502 125.429 117.642C124.899 118.782 124.634 120.174 124.634 121.818C124.634 123.475 124.899 124.874 125.429 126.014C125.966 127.154 126.698 128.016 127.626 128.599C128.554 129.183 129.598 129.474 130.759 129.474C131.402 129.474 132.011 129.388 132.588 129.216C133.171 129.037 133.698 128.775 134.169 128.43C134.64 128.086 135.037 127.665 135.362 127.168C135.694 126.664 135.922 126.087 136.048 125.438L139.151 125.447C138.985 126.448 138.663 127.37 138.186 128.212C137.715 129.047 137.109 129.769 136.366 130.379C135.631 130.982 134.789 131.45 133.841 131.781C132.893 132.113 131.859 132.278 130.739 132.278C128.975 132.278 127.404 131.861 126.026 131.026C124.647 130.184 123.56 128.981 122.764 127.416C121.975 125.852 121.581 123.986 121.581 121.818C121.581 119.644 121.979 117.778 122.774 116.22C123.57 114.656 124.657 113.456 126.036 112.621C127.414 111.779 128.982 111.358 130.739 111.358C131.819 111.358 132.827 111.514 133.761 111.825C134.703 112.13 135.548 112.581 136.297 113.178C137.046 113.768 137.666 114.49 138.156 115.345C138.647 116.194 138.978 117.165 139.151 118.259ZM145.9 111.636V132H142.827V111.636H145.9ZM157.891 110.682L151.328 135.062H148.674L155.236 110.682H157.891ZM177.569 118.259H174.466C174.347 117.596 174.125 117.012 173.8 116.509C173.475 116.005 173.078 115.577 172.607 115.226C172.136 114.875 171.609 114.609 171.026 114.43C170.449 114.251 169.836 114.162 169.186 114.162C168.013 114.162 166.962 114.457 166.034 115.047C165.113 115.637 164.384 116.502 163.847 117.642C163.317 118.782 163.051 120.174 163.051 121.818C163.051 123.475 163.317 124.874 163.847 126.014C164.384 127.154 165.116 128.016 166.044 128.599C166.972 129.183 168.016 129.474 169.176 129.474C169.819 129.474 170.429 129.388 171.006 129.216C171.589 129.037 172.116 128.775 172.587 128.43C173.058 128.086 173.455 127.665 173.78 127.168C174.112 126.664 174.34 126.087 174.466 125.438L177.569 125.447C177.403 126.448 177.081 127.37 176.604 128.212C176.133 129.047 175.527 129.769 174.784 130.379C174.049 130.982 173.207 131.45 172.259 131.781C171.311 132.113 170.277 132.278 169.157 132.278C167.393 132.278 165.822 131.861 164.444 131.026C163.065 130.184 161.978 128.981 161.182 127.416C160.393 125.852 159.999 123.986 159.999 121.818C159.999 119.644 160.397 117.778 161.192 116.22C161.988 114.656 163.075 113.456 164.453 112.621C165.832 111.779 167.4 111.358 169.157 111.358C170.237 111.358 171.245 111.514 172.179 111.825C173.121 112.13 173.966 112.581 174.715 113.178C175.464 113.768 176.084 114.49 176.574 115.345C177.065 116.194 177.396 117.165 177.569 118.259ZM187.837 132H181.245V111.636H188.046C190.041 111.636 191.755 112.044 193.187 112.859C194.619 113.668 195.716 114.831 196.478 116.349C197.247 117.861 197.631 119.674 197.631 121.788C197.631 123.91 197.244 125.732 196.468 127.257C195.699 128.782 194.585 129.955 193.127 130.777C191.669 131.592 189.906 132 187.837 132ZM184.317 129.315H187.668C189.219 129.315 190.509 129.024 191.536 128.44C192.564 127.85 193.333 126.999 193.843 125.885C194.353 124.765 194.609 123.399 194.609 121.788C194.609 120.191 194.353 118.835 193.843 117.722C193.339 116.608 192.587 115.763 191.586 115.186C190.585 114.609 189.342 114.321 187.857 114.321H184.317V129.315Z" fill="#67747E"/>
</g>
<g clip-path="url(#clip5_925_35093)">
<rect x="713" y="93" width="102" height="101" rx="8" fill="#D9D9D9"/>
<path d="M740.83 154H734.237V133.636H741.038C743.034 133.636 744.747 134.044 746.179 134.859C747.611 135.668 748.708 136.831 749.47 138.349C750.239 139.861 750.624 141.674 750.624 143.788C750.624 145.91 750.236 147.732 749.46 149.257C748.691 150.782 747.578 151.955 746.119 152.777C744.661 153.592 742.898 154 740.83 154ZM737.31 151.315H740.661C742.212 151.315 743.501 151.024 744.528 150.44C745.556 149.85 746.325 148.999 746.835 147.885C747.346 146.765 747.601 145.399 747.601 143.788C747.601 142.191 747.346 140.835 746.835 139.722C746.331 138.608 745.579 137.763 744.578 137.186C743.577 136.609 742.334 136.321 740.849 136.321H737.31V151.315ZM758.65 154.338C757.682 154.338 756.807 154.159 756.025 153.801C755.243 153.437 754.623 152.91 754.166 152.22C753.715 151.531 753.49 150.686 753.49 149.685C753.49 148.823 753.655 148.114 753.987 147.557C754.318 147 754.766 146.559 755.329 146.234C755.893 145.91 756.522 145.664 757.218 145.499C757.914 145.333 758.624 145.207 759.346 145.121C760.261 145.015 761.003 144.929 761.574 144.862C762.144 144.789 762.558 144.673 762.816 144.514C763.075 144.355 763.204 144.097 763.204 143.739V143.669C763.204 142.801 762.959 142.128 762.468 141.651C761.984 141.173 761.262 140.935 760.301 140.935C759.3 140.935 758.511 141.157 757.934 141.601C757.364 142.038 756.97 142.526 756.751 143.062L753.957 142.426C754.288 141.498 754.772 140.749 755.409 140.179C756.052 139.602 756.791 139.185 757.626 138.926C758.461 138.661 759.34 138.528 760.261 138.528C760.871 138.528 761.517 138.601 762.2 138.747C762.889 138.886 763.532 139.145 764.129 139.523C764.732 139.901 765.226 140.441 765.61 141.143C765.995 141.839 766.187 142.744 766.187 143.858V154H763.284V151.912H763.164C762.972 152.296 762.684 152.674 762.299 153.045C761.915 153.417 761.421 153.725 760.818 153.97C760.215 154.215 759.492 154.338 758.65 154.338ZM759.297 151.952C760.118 151.952 760.821 151.789 761.404 151.464C761.994 151.14 762.442 150.715 762.747 150.192C763.058 149.661 763.214 149.095 763.214 148.491V146.523C763.108 146.629 762.903 146.728 762.598 146.821C762.299 146.907 761.958 146.983 761.574 147.05C761.189 147.109 760.815 147.166 760.45 147.219C760.085 147.265 759.78 147.305 759.535 147.338C758.958 147.411 758.431 147.534 757.954 147.706C757.484 147.878 757.106 148.127 756.821 148.452C756.542 148.77 756.403 149.194 756.403 149.724C756.403 150.46 756.675 151.017 757.218 151.395C757.762 151.766 758.455 151.952 759.297 151.952ZM777.276 138.727V141.114H768.934V138.727H777.276ZM771.171 135.068H774.144V149.516C774.144 150.092 774.23 150.527 774.403 150.818C774.575 151.103 774.797 151.299 775.069 151.405C775.347 151.504 775.649 151.554 775.974 151.554C776.212 151.554 776.421 151.537 776.6 151.504C776.779 151.471 776.918 151.445 777.018 151.425L777.555 153.881C777.382 153.947 777.137 154.013 776.819 154.08C776.501 154.152 776.103 154.192 775.626 154.199C774.844 154.212 774.114 154.073 773.438 153.781C772.762 153.49 772.215 153.039 771.798 152.429C771.38 151.819 771.171 151.054 771.171 150.132V135.068ZM785.01 154.338C784.042 154.338 783.167 154.159 782.385 153.801C781.602 153.437 780.983 152.91 780.525 152.22C780.074 151.531 779.849 150.686 779.849 149.685C779.849 148.823 780.015 148.114 780.346 147.557C780.678 147 781.125 146.559 781.689 146.234C782.252 145.91 782.882 145.664 783.578 145.499C784.274 145.333 784.983 145.207 785.706 145.121C786.62 145.015 787.363 144.929 787.933 144.862C788.503 144.789 788.917 144.673 789.176 144.514C789.434 144.355 789.564 144.097 789.564 143.739V143.669C789.564 142.801 789.318 142.128 788.828 141.651C788.344 141.173 787.621 140.935 786.66 140.935C785.659 140.935 784.87 141.157 784.294 141.601C783.724 142.038 783.329 142.526 783.11 143.062L780.316 142.426C780.648 141.498 781.132 140.749 781.768 140.179C782.411 139.602 783.15 139.185 783.985 138.926C784.821 138.661 785.699 138.528 786.62 138.528C787.23 138.528 787.877 138.601 788.559 138.747C789.249 138.886 789.892 139.145 790.488 139.523C791.092 139.901 791.585 140.441 791.97 141.143C792.354 141.839 792.547 142.744 792.547 143.858V154H789.643V151.912H789.524C789.332 152.296 789.043 152.674 788.659 153.045C788.274 153.417 787.78 153.725 787.177 153.97C786.574 154.215 785.851 154.338 785.01 154.338ZM785.656 151.952C786.478 151.952 787.181 151.789 787.764 151.464C788.354 151.14 788.801 150.715 789.106 150.192C789.418 149.661 789.574 149.095 789.574 148.491V146.523C789.467 146.629 789.262 146.728 788.957 146.821C788.659 146.907 788.317 146.983 787.933 147.05C787.548 147.109 787.174 147.166 786.809 147.219C786.445 147.265 786.14 147.305 785.895 147.338C785.318 147.411 784.791 147.534 784.314 147.706C783.843 147.878 783.465 148.127 783.18 148.452C782.902 148.77 782.762 149.194 782.762 149.724C782.762 150.46 783.034 151.017 783.578 151.395C784.121 151.766 784.814 151.952 785.656 151.952Z" fill="#67747E"/>
</g>
<g clip-path="url(#clip6_925_35093)">
<rect x="224" y="324" width="132" height="52" rx="8" fill="#D9D9D9"/>
<path d="M252.83 360H246.237V339.636H253.038C255.034 339.636 256.747 340.044 258.179 340.859C259.611 341.668 260.708 342.831 261.47 344.349C262.239 345.861 262.624 347.674 262.624 349.788C262.624 351.91 262.236 353.732 261.46 355.257C260.691 356.782 259.578 357.955 258.119 358.777C256.661 359.592 254.898 360 252.83 360ZM249.31 357.315H252.661C254.212 357.315 255.501 357.024 256.528 356.44C257.556 355.85 258.325 354.999 258.835 353.885C259.346 352.765 259.601 351.399 259.601 349.788C259.601 348.191 259.346 346.835 258.835 345.722C258.331 344.608 257.579 343.763 256.578 343.186C255.577 342.609 254.334 342.321 252.849 342.321H249.31V357.315ZM272.788 360.308C271.283 360.308 269.987 359.987 268.9 359.344C267.82 358.694 266.984 357.783 266.395 356.609C265.811 355.429 265.52 354.047 265.52 352.463C265.52 350.899 265.811 349.52 266.395 348.327C266.984 347.134 267.806 346.202 268.86 345.533C269.921 344.863 271.161 344.528 272.579 344.528C273.441 344.528 274.276 344.671 275.085 344.956C275.894 345.241 276.619 345.688 277.262 346.298C277.905 346.908 278.413 347.7 278.784 348.675C279.155 349.643 279.341 350.819 279.341 352.205V353.259H267.2V351.031H276.427C276.427 350.249 276.268 349.556 275.95 348.953C275.632 348.343 275.184 347.863 274.608 347.511C274.038 347.16 273.368 346.984 272.599 346.984C271.764 346.984 271.035 347.19 270.412 347.601C269.795 348.005 269.318 348.536 268.98 349.192C268.648 349.841 268.483 350.547 268.483 351.31V353.05C268.483 354.071 268.662 354.939 269.02 355.655C269.384 356.371 269.891 356.918 270.541 357.295C271.19 357.667 271.949 357.852 272.818 357.852C273.381 357.852 273.895 357.773 274.359 357.614C274.823 357.448 275.224 357.203 275.562 356.878C275.9 356.553 276.159 356.152 276.338 355.675L279.152 356.182C278.926 357.01 278.522 357.736 277.939 358.359C277.362 358.976 276.636 359.456 275.761 359.801C274.893 360.139 273.902 360.308 272.788 360.308ZM294.084 348.456L291.389 348.933C291.277 348.589 291.098 348.26 290.852 347.949C290.614 347.637 290.289 347.382 289.878 347.183C289.467 346.984 288.953 346.885 288.337 346.885C287.495 346.885 286.792 347.074 286.229 347.452C285.665 347.823 285.384 348.304 285.384 348.893C285.384 349.404 285.572 349.815 285.95 350.126C286.328 350.438 286.938 350.693 287.78 350.892L290.206 351.449C291.611 351.774 292.659 352.274 293.348 352.95C294.037 353.626 294.382 354.505 294.382 355.585C294.382 356.5 294.117 357.315 293.587 358.031C293.063 358.741 292.33 359.297 291.389 359.702C290.455 360.106 289.371 360.308 288.138 360.308C286.428 360.308 285.032 359.944 283.952 359.214C282.871 358.479 282.208 357.435 281.963 356.082L284.837 355.645C285.016 356.394 285.384 356.961 285.94 357.345C286.497 357.723 287.223 357.912 288.118 357.912C289.092 357.912 289.871 357.71 290.455 357.305C291.038 356.894 291.33 356.394 291.33 355.804C291.33 355.327 291.151 354.926 290.793 354.601C290.441 354.276 289.901 354.031 289.172 353.865L286.587 353.298C285.161 352.973 284.107 352.456 283.425 351.747C282.749 351.038 282.411 350.14 282.411 349.053C282.411 348.151 282.662 347.362 283.166 346.686C283.67 346.01 284.366 345.483 285.254 345.105C286.143 344.721 287.16 344.528 288.307 344.528C289.957 344.528 291.257 344.886 292.205 345.602C293.152 346.312 293.779 347.263 294.084 348.456ZM297.651 360V344.727H300.624V360H297.651ZM299.152 342.371C298.635 342.371 298.191 342.198 297.82 341.854C297.455 341.502 297.273 341.085 297.273 340.601C297.273 340.11 297.455 339.693 297.82 339.348C298.191 338.997 298.635 338.821 299.152 338.821C299.669 338.821 300.11 338.997 300.475 339.348C300.846 339.693 301.032 340.11 301.032 340.601C301.032 341.085 300.846 341.502 300.475 341.854C300.11 342.198 299.669 342.371 299.152 342.371ZM311.027 366.045C309.814 366.045 308.77 365.886 307.895 365.568C307.027 365.25 306.317 364.829 305.767 364.305C305.217 363.782 304.806 363.208 304.534 362.585L307.089 361.531C307.268 361.823 307.507 362.131 307.805 362.456C308.11 362.787 308.521 363.069 309.038 363.301C309.562 363.533 310.235 363.649 311.057 363.649C312.184 363.649 313.115 363.374 313.851 362.824C314.587 362.28 314.955 361.412 314.955 360.219V357.216H314.766C314.587 357.541 314.328 357.902 313.99 358.3C313.659 358.697 313.201 359.042 312.618 359.334C312.035 359.625 311.276 359.771 310.341 359.771C309.134 359.771 308.047 359.49 307.08 358.926C306.118 358.356 305.356 357.518 304.793 356.411C304.236 355.297 303.957 353.928 303.957 352.304C303.957 350.68 304.232 349.288 304.783 348.128C305.339 346.968 306.102 346.08 307.07 345.463C308.037 344.84 309.134 344.528 310.361 344.528C311.309 344.528 312.074 344.688 312.658 345.006C313.241 345.317 313.695 345.682 314.02 346.099C314.351 346.517 314.607 346.885 314.786 347.203H315.004V344.727H317.918V360.338C317.918 361.651 317.613 362.728 317.003 363.57C316.393 364.411 315.568 365.035 314.527 365.439C313.493 365.843 312.326 366.045 311.027 366.045ZM310.997 357.305C311.852 357.305 312.575 357.107 313.165 356.709C313.761 356.304 314.212 355.728 314.517 354.979C314.829 354.223 314.984 353.318 314.984 352.264C314.984 351.237 314.832 350.332 314.527 349.55C314.222 348.768 313.775 348.158 313.185 347.72C312.595 347.276 311.866 347.054 310.997 347.054C310.102 347.054 309.357 347.286 308.76 347.75C308.163 348.207 307.713 348.83 307.408 349.619C307.109 350.408 306.96 351.29 306.96 352.264C306.96 353.265 307.113 354.143 307.418 354.899C307.723 355.655 308.173 356.245 308.77 356.669C309.373 357.093 310.116 357.305 310.997 357.305ZM324.878 350.932V360H321.905V344.727H324.759V347.213H324.947C325.299 346.404 325.849 345.755 326.598 345.264C327.354 344.774 328.305 344.528 329.452 344.528C330.492 344.528 331.404 344.747 332.186 345.185C332.968 345.616 333.575 346.259 334.006 347.114C334.437 347.969 334.652 349.026 334.652 350.286V360H331.679V350.643C331.679 349.536 331.391 348.671 330.814 348.048C330.237 347.419 329.445 347.104 328.438 347.104C327.748 347.104 327.135 347.253 326.598 347.551C326.068 347.849 325.647 348.287 325.335 348.864C325.03 349.434 324.878 350.123 324.878 350.932Z" fill="#67747E"/>
</g>
<g clip-path="url(#clip7_925_35093)">
<rect x="460" y="321" width="154" height="55" rx="8" fill="#D9D9D9"/>
<path d="M492.83 359H486.237V338.636H493.038C495.034 338.636 496.747 339.044 498.179 339.859C499.611 340.668 500.708 341.831 501.47 343.349C502.239 344.861 502.624 346.674 502.624 348.788C502.624 350.91 502.236 352.732 501.46 354.257C500.691 355.782 499.578 356.955 498.119 357.777C496.661 358.592 494.898 359 492.83 359ZM489.31 356.315H492.661C494.212 356.315 495.501 356.024 496.528 355.44C497.556 354.85 498.325 353.999 498.835 352.885C499.346 351.765 499.601 350.399 499.601 348.788C499.601 347.191 499.346 345.835 498.835 344.722C498.331 343.608 497.579 342.763 496.578 342.186C495.577 341.609 494.334 341.321 492.849 341.321H489.31V356.315ZM512.788 359.308C511.283 359.308 509.987 358.987 508.9 358.344C507.82 357.694 506.984 356.783 506.395 355.609C505.811 354.429 505.52 353.047 505.52 351.463C505.52 349.899 505.811 348.52 506.395 347.327C506.984 346.134 507.806 345.202 508.86 344.533C509.921 343.863 511.161 343.528 512.579 343.528C513.441 343.528 514.276 343.671 515.085 343.956C515.894 344.241 516.619 344.688 517.262 345.298C517.905 345.908 518.413 346.7 518.784 347.675C519.155 348.643 519.341 349.819 519.341 351.205V352.259H507.2V350.031H516.427C516.427 349.249 516.268 348.556 515.95 347.953C515.632 347.343 515.184 346.863 514.608 346.511C514.038 346.16 513.368 345.984 512.599 345.984C511.764 345.984 511.035 346.19 510.412 346.601C509.795 347.005 509.318 347.536 508.98 348.192C508.648 348.841 508.483 349.547 508.483 350.31V352.05C508.483 353.071 508.662 353.939 509.02 354.655C509.384 355.371 509.891 355.918 510.541 356.295C511.19 356.667 511.949 356.852 512.818 356.852C513.381 356.852 513.895 356.773 514.359 356.614C514.823 356.448 515.224 356.203 515.562 355.878C515.9 355.553 516.159 355.152 516.338 354.675L519.152 355.182C518.926 356.01 518.522 356.736 517.939 357.359C517.362 357.976 516.636 358.456 515.761 358.801C514.893 359.139 513.902 359.308 512.788 359.308ZM535.267 343.727L529.729 359H526.547L520.999 343.727H524.19L528.058 355.48H528.217L532.075 343.727H535.267ZM555.989 348.818C555.989 350.992 555.591 352.862 554.795 354.426C554 355.984 552.91 357.184 551.524 358.026C550.145 358.861 548.578 359.278 546.821 359.278C545.058 359.278 543.483 358.861 542.098 358.026C540.719 357.184 539.632 355.981 538.837 354.416C538.041 352.852 537.643 350.986 537.643 348.818C537.643 346.644 538.041 344.778 538.837 343.22C539.632 341.656 540.719 340.456 542.098 339.621C543.483 338.779 545.058 338.358 546.821 338.358C548.578 338.358 550.145 338.779 551.524 339.621C552.91 340.456 554 341.656 554.795 343.22C555.591 344.778 555.989 346.644 555.989 348.818ZM552.946 348.818C552.946 347.161 552.678 345.766 552.141 344.632C551.61 343.492 550.881 342.63 549.953 342.047C549.032 341.457 547.988 341.162 546.821 341.162C545.648 341.162 544.6 341.457 543.679 342.047C542.758 342.63 542.028 343.492 541.491 344.632C540.961 345.766 540.696 347.161 540.696 348.818C540.696 350.475 540.961 351.874 541.491 353.014C542.028 354.148 542.758 355.009 543.679 355.599C544.6 356.183 545.648 356.474 546.821 356.474C547.988 356.474 549.032 356.183 549.953 355.599C550.881 355.009 551.61 354.148 552.141 353.014C552.678 351.874 552.946 350.475 552.946 348.818ZM559.581 364.727V343.727H562.484V346.203H562.733C562.905 345.885 563.154 345.517 563.478 345.099C563.803 344.682 564.254 344.317 564.831 344.006C565.407 343.688 566.17 343.528 567.118 343.528C568.35 343.528 569.451 343.84 570.419 344.463C571.386 345.086 572.145 345.984 572.696 347.158C573.252 348.331 573.531 349.743 573.531 351.393C573.531 353.044 573.256 354.459 572.706 355.639C572.155 356.812 571.4 357.717 570.439 358.354C569.477 358.983 568.38 359.298 567.147 359.298C566.219 359.298 565.46 359.143 564.87 358.831C564.287 358.519 563.83 358.155 563.498 357.737C563.167 357.32 562.912 356.948 562.733 356.624H562.554V364.727H559.581ZM562.494 351.364C562.494 352.437 562.65 353.379 562.961 354.188C563.273 354.996 563.724 355.629 564.314 356.087C564.904 356.537 565.626 356.763 566.481 356.763C567.369 356.763 568.112 356.527 568.708 356.057C569.305 355.58 569.756 354.933 570.061 354.118C570.372 353.303 570.528 352.384 570.528 351.364C570.528 350.356 570.376 349.451 570.071 348.649C569.772 347.847 569.322 347.214 568.718 346.75C568.122 346.286 567.376 346.054 566.481 346.054C565.619 346.054 564.89 346.276 564.294 346.72C563.704 347.164 563.256 347.784 562.951 348.58C562.646 349.375 562.494 350.303 562.494 351.364ZM588.306 347.456L585.612 347.933C585.499 347.589 585.32 347.26 585.075 346.949C584.836 346.637 584.511 346.382 584.1 346.183C583.69 345.984 583.176 345.885 582.559 345.885C581.717 345.885 581.015 346.074 580.451 346.452C579.888 346.823 579.606 347.304 579.606 347.893C579.606 348.404 579.795 348.815 580.173 349.126C580.551 349.438 581.161 349.693 582.002 349.892L584.429 350.449C585.834 350.774 586.881 351.274 587.571 351.95C588.26 352.626 588.605 353.505 588.605 354.585C588.605 355.5 588.34 356.315 587.809 357.031C587.286 357.741 586.553 358.297 585.612 358.702C584.677 359.106 583.593 359.308 582.36 359.308C580.65 359.308 579.255 358.944 578.174 358.214C577.094 357.479 576.431 356.435 576.186 355.082L579.059 354.645C579.238 355.394 579.606 355.961 580.163 356.345C580.72 356.723 581.446 356.912 582.341 356.912C583.315 356.912 584.094 356.71 584.677 356.305C585.261 355.894 585.552 355.394 585.552 354.804C585.552 354.327 585.373 353.926 585.015 353.601C584.664 353.276 584.124 353.031 583.395 352.865L580.809 352.298C579.384 351.973 578.33 351.456 577.647 350.747C576.971 350.038 576.633 349.14 576.633 348.053C576.633 347.151 576.885 346.362 577.389 345.686C577.893 345.01 578.589 344.483 579.477 344.105C580.365 343.721 581.383 343.528 582.529 343.528C584.18 343.528 585.479 343.886 586.427 344.602C587.375 345.312 588.002 346.263 588.306 347.456Z" fill="#67747E"/>
</g>
<g clip-path="url(#clip8_925_35093)">
<g clip-path="url(#clip9_925_35093)">
<rect x="336" width="202" height="116" rx="8" fill="#D9D9D9"/>
<path d="M394.784 30.6364H398.513L404.996 46.4659H405.234L411.717 30.6364H415.446V51H412.523V36.2642H412.334L406.328 50.9702H403.902L397.896 36.2543H397.707V51H394.784V30.6364ZM426.108 51.3082C424.676 51.3082 423.426 50.9801 422.359 50.3239C421.292 49.6676 420.463 48.7495 419.873 47.5696C419.283 46.3897 418.988 45.0109 418.988 43.4332C418.988 41.849 419.283 40.4635 419.873 39.277C420.463 38.0904 421.292 37.169 422.359 36.5128C423.426 35.8565 424.676 35.5284 426.108 35.5284C427.539 35.5284 428.789 35.8565 429.856 36.5128C430.923 37.169 431.752 38.0904 432.342 39.277C432.932 40.4635 433.227 41.849 433.227 43.4332C433.227 45.0109 432.932 46.3897 432.342 47.5696C431.752 48.7495 430.923 49.6676 429.856 50.3239C428.789 50.9801 427.539 51.3082 426.108 51.3082ZM426.118 48.8125C427.046 48.8125 427.815 48.5672 428.424 48.0767C429.034 47.5862 429.485 46.9332 429.777 46.1179C430.075 45.3026 430.224 44.4044 430.224 43.4233C430.224 42.4489 430.075 41.554 429.777 40.7386C429.485 39.9167 429.034 39.2571 428.424 38.7599C427.815 38.2628 427.046 38.0142 426.118 38.0142C425.183 38.0142 424.407 38.2628 423.791 38.7599C423.181 39.2571 422.727 39.9167 422.429 40.7386C422.137 41.554 421.991 42.4489 421.991 43.4233C421.991 44.4044 422.137 45.3026 422.429 46.1179C422.727 46.9332 423.181 47.5862 423.791 48.0767C424.407 48.5672 425.183 48.8125 426.118 48.8125ZM436.784 51V30.6364H439.757V38.2031H439.936C440.108 37.8849 440.357 37.517 440.682 37.0994C441.007 36.6818 441.457 36.3172 442.034 36.0057C442.611 35.6875 443.373 35.5284 444.321 35.5284C445.554 35.5284 446.654 35.84 447.622 36.4631C448.59 37.0862 449.349 37.9844 449.899 39.1577C450.456 40.331 450.734 41.7429 450.734 43.3935C450.734 45.044 450.459 46.4593 449.909 47.6392C449.359 48.8125 448.603 49.7173 447.642 50.3537C446.681 50.9834 445.584 51.2983 444.351 51.2983C443.423 51.2983 442.664 51.1425 442.074 50.831C441.491 50.5194 441.033 50.1548 440.702 49.7372C440.37 49.3196 440.115 48.9484 439.936 48.6236H439.688V51H436.784ZM439.697 43.3636C439.697 44.4375 439.853 45.3788 440.165 46.1875C440.476 46.9962 440.927 47.6293 441.517 48.0866C442.107 48.5374 442.83 48.7628 443.685 48.7628C444.573 48.7628 445.315 48.5275 445.912 48.0568C446.509 47.5795 446.959 46.9332 447.264 46.1179C447.576 45.3026 447.732 44.3845 447.732 43.3636C447.732 42.3561 447.579 41.4512 447.274 40.6491C446.976 39.8471 446.525 39.214 445.922 38.75C445.325 38.286 444.58 38.054 443.685 38.054C442.823 38.054 442.094 38.276 441.497 38.7202C440.907 39.1643 440.46 39.7841 440.155 40.5795C439.85 41.375 439.697 42.303 439.697 43.3636ZM454.073 51V35.7273H457.046V51H454.073ZM455.574 33.3707C455.057 33.3707 454.613 33.1984 454.242 32.8537C453.877 32.5024 453.695 32.0848 453.695 31.6009C453.695 31.1103 453.877 30.6927 454.242 30.348C454.613 29.9967 455.057 29.821 455.574 29.821C456.091 29.821 456.532 29.9967 456.897 30.348C457.268 30.6927 457.453 31.1103 457.453 31.6009C457.453 32.0848 457.268 32.5024 456.897 32.8537C456.532 33.1984 456.091 33.3707 455.574 33.3707ZM464.018 30.6364V51H461.045V30.6364H464.018ZM474.6 51.3082C473.096 51.3082 471.8 50.9867 470.713 50.3438C469.632 49.6941 468.797 48.7827 468.207 47.6094C467.624 46.4295 467.332 45.0473 467.332 43.4631C467.332 41.8987 467.624 40.5199 468.207 39.3267C468.797 38.1335 469.619 37.2022 470.673 36.5327C471.734 35.8632 472.973 35.5284 474.392 35.5284C475.253 35.5284 476.089 35.6709 476.897 35.956C477.706 36.241 478.432 36.6884 479.075 37.2983C479.718 37.9081 480.225 38.7003 480.596 39.6747C480.967 40.6425 481.153 41.8191 481.153 43.2045V44.2585H469.012V42.0312H478.24C478.24 41.2491 478.081 40.5563 477.762 39.9531C477.444 39.3433 476.997 38.8627 476.42 38.5114C475.85 38.16 475.181 37.9844 474.412 37.9844C473.576 37.9844 472.847 38.1899 472.224 38.6009C471.608 39.0052 471.13 39.5355 470.792 40.1918C470.461 40.8414 470.295 41.5473 470.295 42.3097V44.0497C470.295 45.0705 470.474 45.9389 470.832 46.6548C471.197 47.3707 471.704 47.9176 472.353 48.2955C473.003 48.6667 473.762 48.8523 474.63 48.8523C475.194 48.8523 475.708 48.7727 476.172 48.6136C476.636 48.4479 477.037 48.2027 477.375 47.8778C477.713 47.553 477.971 47.152 478.15 46.6747L480.964 47.1818C480.739 48.0104 480.334 48.7363 479.751 49.3594C479.174 49.9759 478.449 50.4564 477.574 50.8011C476.705 51.1392 475.714 51.3082 474.6 51.3082ZM357.613 85H351.02V64.6364H357.822C359.817 64.6364 361.53 65.044 362.962 65.8594C364.394 66.6681 365.491 67.8314 366.253 69.3494C367.022 70.8608 367.407 72.6738 367.407 74.7884C367.407 76.9096 367.019 78.7325 366.243 80.2571C365.474 81.7817 364.361 82.955 362.903 83.777C361.444 84.5923 359.681 85 357.613 85ZM354.093 82.3153H357.444C358.995 82.3153 360.284 82.0237 361.312 81.4403C362.339 80.8504 363.108 79.9986 363.618 78.8849C364.129 77.7647 364.384 76.3991 364.384 74.7884C364.384 73.1908 364.129 71.8352 363.618 70.7216C363.115 69.608 362.362 68.7628 361.361 68.1861C360.36 67.6094 359.117 67.321 357.633 67.321H354.093V82.3153ZM377.571 85.3082C376.066 85.3082 374.771 84.9867 373.683 84.3438C372.603 83.6941 371.768 82.7827 371.178 81.6094C370.594 80.4295 370.303 79.0473 370.303 77.4631C370.303 75.8987 370.594 74.5199 371.178 73.3267C371.768 72.1335 372.59 71.2022 373.644 70.5327C374.704 69.8632 375.944 69.5284 377.362 69.5284C378.224 69.5284 379.059 69.6709 379.868 69.956C380.677 70.241 381.403 70.6884 382.046 71.2983C382.689 71.9081 383.196 72.7003 383.567 73.6747C383.938 74.6425 384.124 75.8191 384.124 77.2045V78.2585H371.983V76.0312H381.21C381.21 75.2491 381.051 74.5563 380.733 73.9531C380.415 73.3433 379.968 72.8627 379.391 72.5114C378.821 72.16 378.151 71.9844 377.382 71.9844C376.547 71.9844 375.818 72.1899 375.195 72.6009C374.578 73.0052 374.101 73.5355 373.763 74.1918C373.432 74.8414 373.266 75.5473 373.266 76.3097V78.0497C373.266 79.0705 373.445 79.9389 373.803 80.6548C374.167 81.3707 374.674 81.9176 375.324 82.2955C375.974 82.6667 376.733 82.8523 377.601 82.8523C378.164 82.8523 378.678 82.7727 379.142 82.6136C379.606 82.4479 380.007 82.2027 380.345 81.8778C380.683 81.553 380.942 81.152 381.121 80.6747L383.935 81.1818C383.709 82.0104 383.305 82.7363 382.722 83.3594C382.145 83.9759 381.419 84.4564 380.544 84.8011C379.676 85.1392 378.685 85.3082 377.571 85.3082ZM400.05 69.7273L394.512 85H391.33L385.782 69.7273H388.974L392.841 81.4801H393.001L396.858 69.7273H400.05ZM408.907 85.3082C407.402 85.3082 406.106 84.9867 405.019 84.3438C403.939 83.6941 403.104 82.7827 402.514 81.6094C401.93 80.4295 401.639 79.0473 401.639 77.4631C401.639 75.8987 401.93 74.5199 402.514 73.3267C403.104 72.1335 403.926 71.2022 404.98 70.5327C406.04 69.8632 407.28 69.5284 408.698 69.5284C409.56 69.5284 410.395 69.6709 411.204 69.956C412.013 70.241 412.739 70.6884 413.382 71.2983C414.025 71.9081 414.532 72.7003 414.903 73.6747C415.274 74.6425 415.46 75.8191 415.46 77.2045V78.2585H403.319V76.0312H412.546C412.546 75.2491 412.387 74.5563 412.069 73.9531C411.751 73.3433 411.303 72.8627 410.727 72.5114C410.157 72.16 409.487 71.9844 408.718 71.9844C407.883 71.9844 407.154 72.1899 406.531 72.6009C405.914 73.0052 405.437 73.5355 405.099 74.1918C404.767 74.8414 404.602 75.5473 404.602 76.3097V78.0497C404.602 79.0705 404.781 79.9389 405.139 80.6548C405.503 81.3707 406.01 81.9176 406.66 82.2955C407.31 82.6667 408.069 82.8523 408.937 82.8523C409.5 82.8523 410.014 82.7727 410.478 82.6136C410.942 82.4479 411.343 82.2027 411.681 81.8778C412.019 81.553 412.278 81.152 412.457 80.6747L415.271 81.1818C415.045 82.0104 414.641 82.7363 414.058 83.3594C413.481 83.9759 412.755 84.4564 411.88 84.8011C411.012 85.1392 410.021 85.3082 408.907 85.3082ZM421.731 64.6364V85H418.758V64.6364H421.731ZM432.164 85.3082C430.732 85.3082 429.483 84.9801 428.416 84.3239C427.348 83.6676 426.52 82.7495 425.93 81.5696C425.34 80.3897 425.045 79.0109 425.045 77.4332C425.045 75.849 425.34 74.4635 425.93 73.277C426.52 72.0904 427.348 71.169 428.416 70.5128C429.483 69.8565 430.732 69.5284 432.164 69.5284C433.596 69.5284 434.846 69.8565 435.913 70.5128C436.98 71.169 437.809 72.0904 438.399 73.277C438.989 74.4635 439.284 75.849 439.284 77.4332C439.284 79.0109 438.989 80.3897 438.399 81.5696C437.809 82.7495 436.98 83.6676 435.913 84.3239C434.846 84.9801 433.596 85.3082 432.164 85.3082ZM432.174 82.8125C433.102 82.8125 433.871 82.5672 434.481 82.0767C435.091 81.5862 435.542 80.9332 435.833 80.1179C436.132 79.3026 436.281 78.4044 436.281 77.4233C436.281 76.4489 436.132 75.554 435.833 74.7386C435.542 73.9167 435.091 73.2571 434.481 72.7599C433.871 72.2628 433.102 72.0142 432.174 72.0142C431.24 72.0142 430.464 72.2628 429.847 72.7599C429.238 73.2571 428.784 73.9167 428.485 74.7386C428.194 75.554 428.048 76.4489 428.048 77.4233C428.048 78.4044 428.194 79.3026 428.485 80.1179C428.784 80.9332 429.238 81.5862 429.847 82.0767C430.464 82.5672 431.24 82.8125 432.174 82.8125ZM442.602 90.7273V69.7273H445.506V72.2031H445.754C445.926 71.8849 446.175 71.517 446.5 71.0994C446.825 70.6818 447.275 70.3172 447.852 70.0057C448.429 69.6875 449.191 69.5284 450.139 69.5284C451.372 69.5284 452.472 69.84 453.44 70.4631C454.408 71.0862 455.167 71.9844 455.717 73.1577C456.274 74.331 456.552 75.7429 456.552 77.3935C456.552 79.044 456.277 80.4593 455.727 81.6392C455.177 82.8125 454.421 83.7173 453.46 84.3537C452.499 84.9834 451.402 85.2983 450.169 85.2983C449.241 85.2983 448.482 85.1425 447.892 84.831C447.309 84.5194 446.851 84.1548 446.52 83.7372C446.188 83.3196 445.933 82.9484 445.754 82.6236H445.575V90.7273H442.602ZM445.515 77.3636C445.515 78.4375 445.671 79.3788 445.983 80.1875C446.294 80.9962 446.745 81.6293 447.335 82.0866C447.925 82.5374 448.648 82.7628 449.503 82.7628C450.391 82.7628 451.133 82.5275 451.73 82.0568C452.327 81.5795 452.777 80.9332 453.082 80.1179C453.394 79.3026 453.55 78.3845 453.55 77.3636C453.55 76.3561 453.397 75.4512 453.092 74.6491C452.794 73.8471 452.343 73.214 451.74 72.75C451.143 72.286 450.398 72.054 449.503 72.054C448.641 72.054 447.912 72.276 447.315 72.7202C446.725 73.1643 446.278 73.7841 445.973 74.5795C445.668 75.375 445.515 76.303 445.515 77.3636ZM459.883 85V69.7273H462.737V72.2131H462.926C463.244 71.3712 463.765 70.715 464.487 70.2443C465.21 69.767 466.075 69.5284 467.082 69.5284C468.103 69.5284 468.958 69.767 469.648 70.2443C470.344 70.7216 470.857 71.3778 471.189 72.2131H471.348C471.712 71.3977 472.292 70.7481 473.088 70.2642C473.883 69.7737 474.831 69.5284 475.932 69.5284C477.317 69.5284 478.447 69.9626 479.322 70.831C480.204 71.6993 480.645 73.0085 480.645 74.7585V85H477.672V75.0369C477.672 74.0028 477.39 73.2538 476.827 72.7898C476.263 72.3258 475.59 72.0938 474.808 72.0938C473.84 72.0938 473.088 72.392 472.551 72.9886C472.014 73.5786 471.746 74.3376 471.746 75.2656V85H468.782V74.848C468.782 74.0194 468.524 73.3532 468.007 72.8494C467.49 72.3456 466.817 72.0938 465.988 72.0938C465.425 72.0938 464.905 72.2429 464.427 72.5412C463.957 72.8329 463.576 73.2405 463.284 73.7642C462.999 74.2879 462.856 74.8944 462.856 75.5838V85H459.883ZM491.212 85.3082C489.707 85.3082 488.411 84.9867 487.324 84.3438C486.244 83.6941 485.408 82.7827 484.818 81.6094C484.235 80.4295 483.943 79.0473 483.943 77.4631C483.943 75.8987 484.235 74.5199 484.818 73.3267C485.408 72.1335 486.23 71.2022 487.284 70.5327C488.345 69.8632 489.584 69.5284 491.003 69.5284C491.865 69.5284 492.7 69.6709 493.509 69.956C494.317 70.241 495.043 70.6884 495.686 71.2983C496.329 71.9081 496.836 72.7003 497.208 73.6747C497.579 74.6425 497.764 75.8191 497.764 77.2045V78.2585H485.624V76.0312H494.851C494.851 75.2491 494.692 74.5563 494.374 73.9531C494.056 73.3433 493.608 72.8627 493.031 72.5114C492.461 72.16 491.792 71.9844 491.023 71.9844C490.188 71.9844 489.459 72.1899 488.835 72.6009C488.219 73.0052 487.742 73.5355 487.404 74.1918C487.072 74.8414 486.906 75.5473 486.906 76.3097V78.0497C486.906 79.0705 487.085 79.9389 487.443 80.6548C487.808 81.3707 488.315 81.9176 488.965 82.2955C489.614 82.6667 490.373 82.8523 491.242 82.8523C491.805 82.8523 492.319 82.7727 492.783 82.6136C493.247 82.4479 493.648 82.2027 493.986 81.8778C494.324 81.553 494.583 81.152 494.762 80.6747L497.575 81.1818C497.35 82.0104 496.946 82.7363 496.362 83.3594C495.786 83.9759 495.06 84.4564 494.185 84.8011C493.316 85.1392 492.325 85.3082 491.212 85.3082ZM504.036 75.9318V85H501.063V69.7273H503.917V72.2131H504.106C504.457 71.4044 505.007 70.7547 505.756 70.2642C506.512 69.7737 507.463 69.5284 508.61 69.5284C509.651 69.5284 510.562 69.7472 511.344 70.1847C512.126 70.6155 512.733 71.2585 513.164 72.1136C513.595 72.9687 513.81 74.026 513.81 75.2855V85H510.837V75.6435C510.837 74.5365 510.549 73.6714 509.972 73.0483C509.395 72.4186 508.603 72.1037 507.596 72.1037C506.906 72.1037 506.293 72.2528 505.756 72.5511C505.226 72.8494 504.805 73.2869 504.493 73.8636C504.189 74.4337 504.036 75.1231 504.036 75.9318ZM524.927 69.7273V72.1136H516.584V69.7273H524.927ZM518.822 66.0682H521.795V80.5156C521.795 81.0923 521.881 81.5265 522.053 81.8182C522.225 82.1032 522.448 82.2988 522.719 82.4048C522.998 82.5043 523.299 82.554 523.624 82.554C523.863 82.554 524.072 82.5374 524.251 82.5043C524.43 82.4711 524.569 82.4446 524.668 82.4247L525.205 84.8807C525.033 84.947 524.787 85.0133 524.469 85.0795C524.151 85.1525 523.753 85.1922 523.276 85.1989C522.494 85.2121 521.765 85.0729 521.089 84.7812C520.412 84.4896 519.866 84.0388 519.448 83.429C519.03 82.8191 518.822 82.0535 518.822 81.1321V66.0682Z" fill="#67747E"/>
</g>
</g>
<g clip-path="url(#clip10_925_35093)">
<rect x="628" y="296" width="78" height="78" rx="8" fill="#D9D9D9"/>
<path d="M656.724 338.398H659.747L661.875 341.172L662.879 342.405L666.27 346.83H663.128L660.861 343.876L660.085 342.803L656.724 338.398ZM666.926 334.818C666.926 336.992 666.528 338.862 665.733 340.426C664.938 341.984 663.847 343.184 662.462 344.026C661.083 344.861 659.515 345.278 657.759 345.278C655.995 345.278 654.421 344.861 653.036 344.026C651.657 343.184 650.57 341.981 649.774 340.416C648.979 338.852 648.581 336.986 648.581 334.818C648.581 332.644 648.979 330.778 649.774 329.22C650.57 327.656 651.657 326.456 653.036 325.621C654.421 324.779 655.995 324.358 657.759 324.358C659.515 324.358 661.083 324.779 662.462 325.621C663.847 326.456 664.938 327.656 665.733 329.22C666.528 330.778 666.926 332.644 666.926 334.818ZM663.884 334.818C663.884 333.161 663.615 331.766 663.078 330.632C662.548 329.492 661.819 328.63 660.891 328.047C659.969 327.457 658.925 327.162 657.759 327.162C656.585 327.162 655.538 327.457 654.616 328.047C653.695 328.63 652.966 329.492 652.429 330.632C651.899 331.766 651.634 333.161 651.634 334.818C651.634 336.475 651.899 337.874 652.429 339.014C652.966 340.148 653.695 341.009 654.616 341.599C655.538 342.183 656.585 342.474 657.759 342.474C658.925 342.474 659.969 342.183 660.891 341.599C661.819 341.009 662.548 340.148 663.078 339.014C663.615 337.874 663.884 336.475 663.884 334.818ZM671.465 345H668.204L675.532 324.636H679.082L686.41 345H683.148L677.391 328.335H677.232L671.465 345ZM672.012 337.026H682.592V339.611H672.012V337.026Z" fill="#67747E"/>
</g>
<g clip-path="url(#clip11_925_35093)">
<rect x="552" y="41" width="146" height="75" rx="8" fill="#D9D9D9"/>
<path d="M577.233 71.2812V68.6364H592.993V71.2812H586.639V89H583.577V71.2812H577.233ZM600.604 89.3082C599.1 89.3082 597.804 88.9867 596.717 88.3438C595.636 87.6941 594.801 86.7827 594.211 85.6094C593.628 84.4295 593.336 83.0473 593.336 81.4631C593.336 79.8987 593.628 78.5199 594.211 77.3267C594.801 76.1335 595.623 75.2022 596.677 74.5327C597.737 73.8632 598.977 73.5284 600.396 73.5284C601.257 73.5284 602.093 73.6709 602.901 73.956C603.71 74.241 604.436 74.6884 605.079 75.2983C605.722 75.9081 606.229 76.7003 606.6 77.6747C606.971 78.6425 607.157 79.8191 607.157 81.2045V82.2585H595.016V80.0312H604.244C604.244 79.2491 604.085 78.5563 603.766 77.9531C603.448 77.3433 603.001 76.8627 602.424 76.5114C601.854 76.16 601.184 75.9844 600.415 75.9844C599.58 75.9844 598.851 76.1899 598.228 76.6009C597.612 77.0052 597.134 77.5355 596.796 78.1918C596.465 78.8414 596.299 79.5473 596.299 80.3097V82.0497C596.299 83.0705 596.478 83.9389 596.836 84.6548C597.201 85.3707 597.708 85.9176 598.357 86.2955C599.007 86.6667 599.766 86.8523 600.634 86.8523C601.198 86.8523 601.711 86.7727 602.175 86.6136C602.639 86.4479 603.04 86.2027 603.379 85.8778C603.717 85.553 603.975 85.152 604.154 84.6747L606.968 85.1818C606.743 86.0104 606.338 86.7363 605.755 87.3594C605.178 87.9759 604.452 88.4564 603.577 88.8011C602.709 89.1392 601.718 89.3082 600.604 89.3082ZM621.9 77.456L619.206 77.9332C619.093 77.5885 618.914 77.2604 618.669 76.9489C618.43 76.6373 618.105 76.3821 617.694 76.1832C617.283 75.9844 616.77 75.8849 616.153 75.8849C615.311 75.8849 614.609 76.0739 614.045 76.4517C613.482 76.8229 613.2 77.3035 613.2 77.8935C613.2 78.4039 613.389 78.8149 613.767 79.1264C614.145 79.438 614.754 79.6932 615.596 79.892L618.022 80.4489C619.428 80.7737 620.475 81.2741 621.164 81.9503C621.854 82.6264 622.199 83.5047 622.199 84.5852C622.199 85.5 621.933 86.3153 621.403 87.0312C620.879 87.7405 620.147 88.2973 619.206 88.7017C618.271 89.1061 617.187 89.3082 615.954 89.3082C614.244 89.3082 612.849 88.9437 611.768 88.2145C610.688 87.4787 610.025 86.4347 609.779 85.0824L612.653 84.6449C612.832 85.3939 613.2 85.9607 613.757 86.3452C614.314 86.723 615.039 86.9119 615.934 86.9119C616.909 86.9119 617.688 86.7098 618.271 86.3054C618.854 85.8944 619.146 85.3939 619.146 84.804C619.146 84.3267 618.967 83.9257 618.609 83.6009C618.258 83.276 617.717 83.0308 616.988 82.8651L614.403 82.2983C612.978 81.9735 611.924 81.4564 611.241 80.7472C610.565 80.0379 610.227 79.1397 610.227 78.0526C610.227 77.151 610.479 76.3622 610.983 75.6861C611.486 75.0099 612.182 74.483 613.071 74.1051C613.959 73.7206 614.976 73.5284 616.123 73.5284C617.774 73.5284 619.073 73.8864 620.021 74.6023C620.969 75.3116 621.595 76.2628 621.9 77.456ZM632.597 73.7273V76.1136H624.254V73.7273H632.597ZM626.491 70.0682H629.464V84.5156C629.464 85.0923 629.551 85.5265 629.723 85.8182C629.895 86.1032 630.117 86.2988 630.389 86.4048C630.668 86.5043 630.969 86.554 631.294 86.554C631.533 86.554 631.741 86.5374 631.92 86.5043C632.099 86.4711 632.239 86.4446 632.338 86.4247L632.875 88.8807C632.703 88.947 632.457 89.0133 632.139 89.0795C631.821 89.1525 631.423 89.1922 630.946 89.1989C630.164 89.2121 629.435 89.0729 628.759 88.7812C628.082 88.4896 627.536 88.0388 627.118 87.429C626.7 86.8191 626.491 86.0535 626.491 85.1321V70.0682ZM635.885 89V73.7273H638.858V89H635.885ZM637.387 71.3707C636.87 71.3707 636.426 71.1984 636.054 70.8537C635.69 70.5024 635.507 70.0848 635.507 69.6009C635.507 69.1103 635.69 68.6927 636.054 68.348C636.426 67.9967 636.87 67.821 637.387 67.821C637.904 67.821 638.345 67.9967 638.709 68.348C639.08 68.6927 639.266 69.1103 639.266 69.6009C639.266 70.0848 639.08 70.5024 638.709 70.8537C638.345 71.1984 637.904 71.3707 637.387 71.3707ZM645.831 79.9318V89H642.858V73.7273H645.712V76.2131H645.901C646.252 75.4044 646.802 74.7547 647.551 74.2642C648.307 73.7737 649.258 73.5284 650.405 73.5284C651.446 73.5284 652.357 73.7472 653.139 74.1847C653.921 74.6155 654.528 75.2585 654.959 76.1136C655.39 76.9687 655.605 78.026 655.605 79.2855V89H652.632V79.6435C652.632 78.5365 652.344 77.6714 651.767 77.0483C651.19 76.4186 650.398 76.1037 649.391 76.1037C648.701 76.1037 648.088 76.2528 647.551 76.5511C647.021 76.8494 646.6 77.2869 646.288 77.8636C645.983 78.4337 645.831 79.1231 645.831 79.9318ZM665.996 95.0455C664.783 95.0455 663.739 94.8864 662.864 94.5682C661.995 94.25 661.286 93.8291 660.736 93.3054C660.186 92.7817 659.775 92.2083 659.503 91.5852L662.058 90.5312C662.237 90.8229 662.476 91.1312 662.774 91.456C663.079 91.7874 663.49 92.0691 664.007 92.3011C664.531 92.5331 665.204 92.6491 666.026 92.6491C667.152 92.6491 668.084 92.3741 668.82 91.8239C669.555 91.2803 669.923 90.4119 669.923 89.2188V86.2159H669.734C669.555 86.5407 669.297 86.902 668.959 87.2997C668.627 87.6974 668.17 88.0421 667.587 88.3338C667.003 88.6255 666.244 88.7713 665.31 88.7713C664.103 88.7713 663.016 88.4896 662.048 87.9261C661.087 87.3561 660.325 86.5175 659.761 85.4105C659.205 84.2969 658.926 82.928 658.926 81.304C658.926 79.6799 659.201 78.2879 659.751 77.1278C660.308 75.9678 661.071 75.0795 662.038 74.4631C663.006 73.84 664.103 73.5284 665.33 73.5284C666.277 73.5284 667.043 73.6875 667.626 74.0057C668.21 74.3172 668.664 74.6818 668.989 75.0994C669.32 75.517 669.575 75.8849 669.754 76.2031H669.973V73.7273H672.886V89.3381C672.886 90.6506 672.581 91.7277 671.972 92.5696C671.362 93.4115 670.536 94.0346 669.496 94.4389C668.462 94.8433 667.295 95.0455 665.996 95.0455ZM665.966 86.3054C666.821 86.3054 667.544 86.1065 668.134 85.7088C668.73 85.3045 669.181 84.7277 669.486 83.9787C669.797 83.223 669.953 82.3182 669.953 81.2642C669.953 80.2367 669.801 79.3319 669.496 78.5497C669.191 77.7675 668.743 77.1577 668.153 76.7202C667.563 76.276 666.834 76.054 665.966 76.054C665.071 76.054 664.325 76.286 663.729 76.75C663.132 77.2074 662.681 77.8305 662.376 78.6193C662.078 79.4081 661.929 80.2898 661.929 81.2642C661.929 82.2652 662.081 83.1435 662.386 83.8991C662.691 84.6548 663.142 85.2448 663.739 85.669C664.342 86.0933 665.084 86.3054 665.966 86.3054Z" fill="#67747E"/>
</g>
<g clip-path="url(#clip12_925_35093)">
<rect x="371" y="320" width="75" height="74" rx="8" fill="#D9D9D9"/>
<path d="M409.332 346.636H412.415V360.03C412.415 361.455 412.08 362.718 411.411 363.818C410.741 364.912 409.8 365.774 408.587 366.403C407.374 367.027 405.952 367.338 404.321 367.338C402.697 367.338 401.278 367.027 400.065 366.403C398.852 365.774 397.911 364.912 397.241 363.818C396.572 362.718 396.237 361.455 396.237 360.03V346.636H399.31V359.781C399.31 360.703 399.512 361.521 399.916 362.237C400.327 362.953 400.907 363.517 401.656 363.928C402.405 364.332 403.294 364.534 404.321 364.534C405.355 364.534 406.247 364.332 406.996 363.928C407.751 363.517 408.328 362.953 408.726 362.237C409.13 361.521 409.332 360.703 409.332 359.781V346.636ZM419.954 346.636V367H416.882V346.636H419.954Z" fill="#67747E"/>
</g>
<g clip-path="url(#clip13_925_35093)">
<rect x="149" y="321" width="60" height="60" rx="8" fill="#D9D9D9"/>
<path d="M174.332 340.636H177.415V354.03C177.415 355.455 177.08 356.718 176.411 357.818C175.741 358.912 174.8 359.774 173.587 360.403C172.374 361.027 170.952 361.338 169.321 361.338C167.697 361.338 166.278 361.027 165.065 360.403C163.852 359.774 162.911 358.912 162.241 357.818C161.572 356.718 161.237 355.455 161.237 354.03V340.636H164.31V353.781C164.31 354.703 164.512 355.521 164.916 356.237C165.327 356.953 165.907 357.517 166.656 357.928C167.405 358.332 168.294 358.534 169.321 358.534C170.355 358.534 171.247 358.332 171.996 357.928C172.751 357.517 173.328 356.953 173.726 356.237C174.13 355.521 174.332 354.703 174.332 353.781V340.636ZM184.02 340.636L188.892 348.601H189.051L193.923 340.636H197.483L191.139 350.818L197.522 361H193.943L189.051 353.145H188.892L184 361H180.42L186.913 350.818L180.46 340.636H184.02Z" fill="#67747E"/>
</g>
<g clip-path="url(#clip14_925_35093)">
<rect y="189" width="209" height="117" rx="8" fill="#D9D9D9"/>
<path d="M80.8104 241L75.1626 220.636H78.3942L82.3615 236.406H82.5504L86.6768 220.636H89.8786L94.005 236.416H94.1939L98.1513 220.636H101.393L95.7351 241H92.6428L88.3572 225.747H88.1982L83.9126 241H80.8104ZM109.034 241.308C107.529 241.308 106.233 240.987 105.146 240.344C104.066 239.694 103.231 238.783 102.641 237.609C102.057 236.429 101.766 235.047 101.766 233.463C101.766 231.899 102.057 230.52 102.641 229.327C103.231 228.134 104.053 227.202 105.107 226.533C106.167 225.863 107.407 225.528 108.825 225.528C109.687 225.528 110.522 225.671 111.331 225.956C112.14 226.241 112.866 226.688 113.509 227.298C114.152 227.908 114.659 228.7 115.03 229.675C115.401 230.643 115.587 231.819 115.587 233.205V234.259H103.446V232.031H112.673C112.673 231.249 112.514 230.556 112.196 229.953C111.878 229.343 111.43 228.863 110.854 228.511C110.284 228.16 109.614 227.984 108.845 227.984C108.01 227.984 107.281 228.19 106.658 228.601C106.041 229.005 105.564 229.536 105.226 230.192C104.894 230.841 104.729 231.547 104.729 232.31V234.05C104.729 235.071 104.908 235.939 105.266 236.655C105.63 237.371 106.137 237.918 106.787 238.295C107.437 238.667 108.196 238.852 109.064 238.852C109.627 238.852 110.141 238.773 110.605 238.614C111.069 238.448 111.47 238.203 111.808 237.878C112.146 237.553 112.405 237.152 112.584 236.675L115.398 237.182C115.172 238.01 114.768 238.736 114.185 239.359C113.608 239.976 112.882 240.456 112.007 240.801C111.139 241.139 110.148 241.308 109.034 241.308ZM119.124 241V220.636H122.097V228.203H122.276C122.448 227.885 122.697 227.517 123.022 227.099C123.346 226.682 123.797 226.317 124.374 226.006C124.951 225.688 125.713 225.528 126.661 225.528C127.894 225.528 128.994 225.84 129.962 226.463C130.93 227.086 131.689 227.984 132.239 229.158C132.796 230.331 133.074 231.743 133.074 233.393C133.074 235.044 132.799 236.459 132.249 237.639C131.699 238.812 130.943 239.717 129.982 240.354C129.021 240.983 127.924 241.298 126.691 241.298C125.763 241.298 125.004 241.143 124.414 240.831C123.83 240.519 123.373 240.155 123.042 239.737C122.71 239.32 122.455 238.948 122.276 238.624H122.027V241H119.124ZM122.037 233.364C122.037 234.437 122.193 235.379 122.505 236.188C122.816 236.996 123.267 237.629 123.857 238.087C124.447 238.537 125.169 238.763 126.025 238.763C126.913 238.763 127.655 238.527 128.252 238.057C128.848 237.58 129.299 236.933 129.604 236.118C129.916 235.303 130.071 234.384 130.071 233.364C130.071 232.356 129.919 231.451 129.614 230.649C129.316 229.847 128.865 229.214 128.262 228.75C127.665 228.286 126.919 228.054 126.025 228.054C125.163 228.054 124.434 228.276 123.837 228.72C123.247 229.164 122.8 229.784 122.495 230.58C122.19 231.375 122.037 232.303 122.037 233.364ZM24.6127 275H18.0204V254.636H24.8216C26.8168 254.636 28.5304 255.044 29.9622 255.859C31.394 256.668 32.4911 257.831 33.2534 259.349C34.0223 260.861 34.4068 262.674 34.4068 264.788C34.4068 266.91 34.019 268.732 33.2434 270.257C32.4745 271.782 31.3609 272.955 29.9025 273.777C28.4442 274.592 26.6809 275 24.6127 275ZM21.0929 272.315H24.4437C25.9949 272.315 27.2842 272.024 28.3116 271.44C29.3391 270.85 30.108 269.999 30.6184 268.885C31.1288 267.765 31.3841 266.399 31.3841 264.788C31.3841 263.191 31.1288 261.835 30.6184 260.722C30.1146 259.608 29.3623 258.763 28.3613 258.186C27.3604 257.609 26.1175 257.321 24.6326 257.321H21.0929V272.315ZM44.5712 275.308C43.0665 275.308 41.7705 274.987 40.6834 274.344C39.6029 273.694 38.7677 272.783 38.1777 271.609C37.5944 270.429 37.3027 269.047 37.3027 267.463C37.3027 265.899 37.5944 264.52 38.1777 263.327C38.7677 262.134 39.5897 261.202 40.6436 260.533C41.7042 259.863 42.9438 259.528 44.3624 259.528C45.2241 259.528 46.0594 259.671 46.8681 259.956C47.6768 260.241 48.4026 260.688 49.0456 261.298C49.6886 261.908 50.1957 262.7 50.5669 263.675C50.9382 264.643 51.1238 265.819 51.1238 267.205V268.259H38.9831V266.031H48.2104C48.2104 265.249 48.0513 264.556 47.7331 263.953C47.415 263.343 46.9675 262.863 46.3908 262.511C45.8207 262.16 45.1512 261.984 44.3823 261.984C43.5471 261.984 42.8179 262.19 42.1948 262.601C41.5783 263.005 41.101 263.536 40.763 264.192C40.4315 264.841 40.2658 265.547 40.2658 266.31V268.05C40.2658 269.071 40.4448 269.939 40.8027 270.655C41.1673 271.371 41.6744 271.918 42.324 272.295C42.9737 272.667 43.7327 272.852 44.601 272.852C45.1645 272.852 45.6782 272.773 46.1422 272.614C46.6062 272.448 47.0073 272.203 47.3453 271.878C47.6834 271.553 47.9419 271.152 48.1209 270.675L50.9348 271.182C50.7095 272.01 50.3051 272.736 49.7218 273.359C49.1451 273.976 48.4192 274.456 47.5442 274.801C46.6758 275.139 45.6848 275.308 44.5712 275.308ZM67.0502 259.727L61.5119 275H58.3301L52.7818 259.727H55.9735L59.8414 271.48H60.0005L63.8585 259.727H67.0502ZM75.9071 275.308C74.4024 275.308 73.1065 274.987 72.0194 274.344C70.9389 273.694 70.1036 272.783 69.5137 271.609C68.9303 270.429 68.6387 269.047 68.6387 267.463C68.6387 265.899 68.9303 264.52 69.5137 263.327C70.1036 262.134 70.9256 261.202 71.9796 260.533C73.0402 259.863 74.2798 259.528 75.6983 259.528C76.5601 259.528 77.3953 259.671 78.204 259.956C79.0127 260.241 79.7386 260.688 80.3816 261.298C81.0246 261.908 81.5317 262.7 81.9029 263.675C82.2741 264.643 82.4597 265.819 82.4597 267.205V268.259H70.3191V266.031H79.5463C79.5463 265.249 79.3873 264.556 79.0691 263.953C78.7509 263.343 78.3034 262.863 77.7267 262.511C77.1567 262.16 76.4872 261.984 75.7182 261.984C74.883 261.984 74.1538 262.19 73.5307 262.601C72.9142 263.005 72.437 263.536 72.0989 264.192C71.7675 264.841 71.6017 265.547 71.6017 266.31V268.05C71.6017 269.071 71.7807 269.939 72.1387 270.655C72.5033 271.371 73.0104 271.918 73.66 272.295C74.3096 272.667 75.0686 272.852 75.937 272.852C76.5004 272.852 77.0141 272.773 77.4782 272.614C77.9422 272.448 78.3432 272.203 78.6813 271.878C79.0194 271.553 79.2779 271.152 79.4569 270.675L82.2708 271.182C82.0454 272.01 81.641 272.736 81.0577 273.359C80.481 273.976 79.7551 274.456 78.8801 274.801C78.0118 275.139 77.0208 275.308 75.9071 275.308ZM88.7314 254.636V275H85.7583V254.636H88.7314ZM99.1642 275.308C97.7324 275.308 96.4829 274.98 95.4157 274.324C94.3484 273.668 93.5198 272.75 92.9299 271.57C92.3399 270.39 92.0449 269.011 92.0449 267.433C92.0449 265.849 92.3399 264.464 92.9299 263.277C93.5198 262.09 94.3484 261.169 95.4157 260.513C96.4829 259.857 97.7324 259.528 99.1642 259.528C100.596 259.528 101.846 259.857 102.913 260.513C103.98 261.169 104.809 262.09 105.399 263.277C105.989 264.464 106.284 265.849 106.284 267.433C106.284 269.011 105.989 270.39 105.399 271.57C104.809 272.75 103.98 273.668 102.913 274.324C101.846 274.98 100.596 275.308 99.1642 275.308ZM99.1742 272.812C100.102 272.812 100.871 272.567 101.481 272.077C102.091 271.586 102.542 270.933 102.833 270.118C103.132 269.303 103.281 268.404 103.281 267.423C103.281 266.449 103.132 265.554 102.833 264.739C102.542 263.917 102.091 263.257 101.481 262.76C100.871 262.263 100.102 262.014 99.1742 262.014C98.2395 262.014 97.464 262.263 96.8475 262.76C96.2376 263.257 95.7836 263.917 95.4853 264.739C95.1936 265.554 95.0478 266.449 95.0478 267.423C95.0478 268.404 95.1936 269.303 95.4853 270.118C95.7836 270.933 96.2376 271.586 96.8475 272.077C97.464 272.567 98.2395 272.812 99.1742 272.812ZM109.602 280.727V259.727H112.506V262.203H112.754C112.926 261.885 113.175 261.517 113.5 261.099C113.825 260.682 114.275 260.317 114.852 260.006C115.429 259.688 116.191 259.528 117.139 259.528C118.372 259.528 119.472 259.84 120.44 260.463C121.408 261.086 122.167 261.984 122.717 263.158C123.274 264.331 123.552 265.743 123.552 267.393C123.552 269.044 123.277 270.459 122.727 271.639C122.177 272.812 121.421 273.717 120.46 274.354C119.499 274.983 118.402 275.298 117.169 275.298C116.241 275.298 115.482 275.143 114.892 274.831C114.309 274.519 113.851 274.155 113.52 273.737C113.188 273.32 112.933 272.948 112.754 272.624H112.575V280.727H109.602ZM112.515 267.364C112.515 268.437 112.671 269.379 112.983 270.188C113.294 270.996 113.745 271.629 114.335 272.087C114.925 272.537 115.648 272.763 116.503 272.763C117.391 272.763 118.133 272.527 118.73 272.057C119.327 271.58 119.777 270.933 120.082 270.118C120.394 269.303 120.55 268.384 120.55 267.364C120.55 266.356 120.397 265.451 120.092 264.649C119.794 263.847 119.343 263.214 118.74 262.75C118.143 262.286 117.398 262.054 116.503 262.054C115.641 262.054 114.912 262.276 114.315 262.72C113.725 263.164 113.278 263.784 112.973 264.58C112.668 265.375 112.515 266.303 112.515 267.364ZM126.883 275V259.727H129.737V262.213H129.926C130.244 261.371 130.765 260.715 131.487 260.244C132.21 259.767 133.075 259.528 134.082 259.528C135.103 259.528 135.958 259.767 136.648 260.244C137.344 260.722 137.857 261.378 138.189 262.213H138.348C138.712 261.398 139.292 260.748 140.088 260.264C140.883 259.774 141.831 259.528 142.932 259.528C144.317 259.528 145.447 259.963 146.322 260.831C147.204 261.699 147.645 263.009 147.645 264.759V275H144.672V265.037C144.672 264.003 144.39 263.254 143.827 262.79C143.263 262.326 142.59 262.094 141.808 262.094C140.84 262.094 140.088 262.392 139.551 262.989C139.014 263.579 138.746 264.338 138.746 265.266V275H135.782V264.848C135.782 264.019 135.524 263.353 135.007 262.849C134.49 262.346 133.817 262.094 132.988 262.094C132.425 262.094 131.905 262.243 131.427 262.541C130.957 262.833 130.576 263.241 130.284 263.764C129.999 264.288 129.856 264.894 129.856 265.584V275H126.883ZM158.212 275.308C156.707 275.308 155.411 274.987 154.324 274.344C153.244 273.694 152.408 272.783 151.818 271.609C151.235 270.429 150.943 269.047 150.943 267.463C150.943 265.899 151.235 264.52 151.818 263.327C152.408 262.134 153.23 261.202 154.284 260.533C155.345 259.863 156.584 259.528 158.003 259.528C158.865 259.528 159.7 259.671 160.509 259.956C161.317 260.241 162.043 260.688 162.686 261.298C163.329 261.908 163.836 262.7 164.208 263.675C164.579 264.643 164.764 265.819 164.764 267.205V268.259H152.624V266.031H161.851C161.851 265.249 161.692 264.556 161.374 263.953C161.056 263.343 160.608 262.863 160.031 262.511C159.461 262.16 158.792 261.984 158.023 261.984C157.188 261.984 156.459 262.19 155.835 262.601C155.219 263.005 154.742 263.536 154.404 264.192C154.072 264.841 153.906 265.547 153.906 266.31V268.05C153.906 269.071 154.085 269.939 154.443 270.655C154.808 271.371 155.315 271.918 155.965 272.295C156.614 272.667 157.373 272.852 158.242 272.852C158.805 272.852 159.319 272.773 159.783 272.614C160.247 272.448 160.648 272.203 160.986 271.878C161.324 271.553 161.583 271.152 161.762 270.675L164.575 271.182C164.35 272.01 163.946 272.736 163.362 273.359C162.786 273.976 162.06 274.456 161.185 274.801C160.316 275.139 159.325 275.308 158.212 275.308ZM171.036 265.932V275H168.063V259.727H170.917V262.213H171.106C171.457 261.404 172.007 260.755 172.756 260.264C173.512 259.774 174.463 259.528 175.61 259.528C176.651 259.528 177.562 259.747 178.344 260.185C179.126 260.616 179.733 261.259 180.164 262.114C180.595 262.969 180.81 264.026 180.81 265.286V275H177.837V265.643C177.837 264.536 177.549 263.671 176.972 263.048C176.395 262.419 175.603 262.104 174.596 262.104C173.906 262.104 173.293 262.253 172.756 262.551C172.226 262.849 171.805 263.287 171.493 263.864C171.189 264.434 171.036 265.123 171.036 265.932ZM191.927 259.727V262.114H183.584V259.727H191.927ZM185.822 256.068H188.795V270.516C188.795 271.092 188.881 271.527 189.053 271.818C189.225 272.103 189.448 272.299 189.719 272.405C189.998 272.504 190.299 272.554 190.624 272.554C190.863 272.554 191.072 272.537 191.251 272.504C191.43 272.471 191.569 272.445 191.668 272.425L192.205 274.881C192.033 274.947 191.787 275.013 191.469 275.08C191.151 275.152 190.753 275.192 190.276 275.199C189.494 275.212 188.765 275.073 188.089 274.781C187.412 274.49 186.866 274.039 186.448 273.429C186.03 272.819 185.822 272.054 185.822 271.132V256.068Z" fill="#67747E"/>
</g>
<defs>
<clipPath id="clip0_925_35093">
<rect width="390" height="176" fill="white" transform="translate(224 130)"/>
</clipPath>
<clipPath id="clip1_925_35093">
<rect width="98" height="75" fill="white" transform="translate(224 43)"/>
</clipPath>
<clipPath id="clip2_925_35093">
<rect width="64" height="64" fill="white" transform="translate(629 130)"/>
</clipPath>
<clipPath id="clip3_925_35093">
<rect width="202" height="74" fill="white" transform="translate(628 208)"/>
</clipPath>
<clipPath id="clip4_925_35093">
<rect width="101" height="105" fill="white" transform="translate(109 69)"/>
</clipPath>
<clipPath id="clip5_925_35093">
<rect width="102" height="101" fill="white" transform="translate(713 93)"/>
</clipPath>
<clipPath id="clip6_925_35093">
<rect width="132" height="52" fill="white" transform="translate(224 324)"/>
</clipPath>
<clipPath id="clip7_925_35093">
<rect width="154" height="55" fill="white" transform="translate(460 321)"/>
</clipPath>
<clipPath id="clip8_925_35093">
<rect width="202" height="116" fill="white" transform="translate(336)"/>
</clipPath>
<clipPath id="clip9_925_35093">
<rect width="444" height="116" fill="white" transform="translate(336)"/>
</clipPath>
<clipPath id="clip10_925_35093">
<rect width="78" height="78" fill="white" transform="translate(628 296)"/>
</clipPath>
<clipPath id="clip11_925_35093">
<rect width="146" height="75" fill="white" transform="translate(552 41)"/>
</clipPath>
<clipPath id="clip12_925_35093">
<rect width="75" height="74" fill="white" transform="translate(371 320)"/>
</clipPath>
<clipPath id="clip13_925_35093">
<rect width="60" height="60" fill="white" transform="translate(149 321)"/>
</clipPath>
<clipPath id="clip14_925_35093">
<rect width="209" height="117" fill="white" transform="translate(0 189)"/>
</clipPath>
</defs>
</svg>
