<svg width="960" height="240" viewBox="0 0 960 240" fill="none" xmlns="http://www.w3.org/2000/svg">
<path d="M619.729 130.055C617.813 130.056 616.347 131.743 616.784 133.573C621.073 151.525 634.994 166.593 663.387 166.593C684.347 166.593 698.18 157.893 704.433 146.725C705.013 145.692 706.093 145.006 707.3 145.006H737.74C739.773 145.006 741.26 146.903 740.633 148.802C729.84 181.459 698.02 194.575 663.433 194.575C622.098 194.575 578.868 172.181 578.868 119.674C578.868 67.1667 621.508 44.7728 663.123 44.7728C704.607 44.7728 747.653 69.2847 744.88 127.169C744.8 128.765 743.44 130.026 741.813 130.027L619.729 130.055ZM618.864 99.502C618.074 101.405 619.568 103.399 621.664 103.399H702.933C704.953 103.399 706.44 101.534 705.807 99.6534C700.66 84.3654 688.3 72.4954 663.123 72.4954C639.347 72.4954 625.184 84.2867 618.864 99.502Z" fill="#008FF5"/>
<path d="M909.333 98.2847V191.698C909.333 192.539 908.64 193.22 907.78 193.22H869.18C868.32 193.22 867.627 192.539 867.627 191.698V108.5C867.627 91.2967 857.467 76.53 831.667 76.53C805.867 76.53 794.387 91.86 794.387 108.5V191.698C794.387 192.539 793.687 193.22 792.833 193.22H754.187C753.327 193.22 752.633 192.539 752.633 191.698V51.3954C752.633 50.5546 753.327 49.873 754.187 49.873H792.8C793.66 49.873 794.353 50.5546 794.353 51.3954V65.3035C794.353 66.7834 796.393 67.4714 797.413 66.3806C805.54 57.7018 822.573 46.1888 849.78 46.1888C887.387 46.1888 909.333 65.9798 909.333 98.2847Z" fill="#008FF5"/>
<path d="M177.219 47.649C175.503 47.649 174.112 49.0122 174.112 50.6938V78.5546C174.112 79.8186 173.315 80.9513 172.11 81.4006L96.6633 109.531C94.63 110.29 92.452 108.818 92.452 106.686V50.6938C92.452 49.0122 91.0613 47.649 89.3453 47.649H53.7734C52.0576 47.649 50.6667 49.0122 50.6667 50.6938V188.637C50.6667 190.318 52.0576 191.681 53.7734 191.681H89.3453C91.0613 191.681 92.452 190.318 92.452 188.637V153.605C92.452 152.341 93.2487 151.209 94.454 150.759L182.73 117.834C185.621 116.756 188.169 120.029 186.343 122.477L174.711 138.067C174.322 138.589 174.112 139.218 174.112 139.865V188.637C174.112 190.318 175.503 191.681 177.219 191.681H212.791C214.507 191.681 215.897 190.318 215.897 188.637V50.6938C215.897 49.0122 214.507 47.649 212.791 47.649H177.219Z" fill="#008FF5"/>
<path d="M406.587 119.765C406.587 64.6243 357.47 44.6659 315.063 44.6659C272.656 44.6659 223.523 64.6243 223.523 119.765C223.523 174.905 272.656 194.666 315.063 194.666C329.96 194.666 355.451 187.845 355.451 187.845C356.645 187.508 357.905 187.456 359.123 187.695C360.343 187.933 361.485 188.455 362.456 189.216C364.478 190.85 367.012 191.753 369.633 191.773H401.88C404.443 191.773 405.111 190.251 403.433 188.439L389.453 173.718C388.599 172.75 388.089 171.537 387.999 170.26C387.91 168.983 388.245 167.713 388.956 166.639C388.956 166.639 406.587 141.991 406.587 119.765ZM360.856 138.033C360.033 140.408 357.936 140.85 356.196 138.993L352.235 134.806C350.138 132.813 347.383 131.62 344.468 131.441H311.956C309.393 131.441 308.725 132.964 310.403 134.775L343.645 169.349C345.4 171.175 344.887 171.921 342.511 170.993L330.705 166.456C327.831 165.47 324.777 165.086 321.743 165.329C319.519 165.556 317.283 165.663 315.047 165.649C283.779 165.649 265.93 148.187 265.93 119.765C265.93 91.342 283.779 73.6827 315.063 73.6827C346.347 73.6827 364.18 91.3727 364.18 119.765C363.939 125.991 362.821 132.154 360.856 138.079V138.033Z" fill="#008FF5"/>
<path d="M480.351 162.467C478.962 162.467 478.271 160.817 479.26 159.861L568.683 73.398C568.979 73.112 569.145 72.722 569.145 72.3146V49.1714C569.145 48.3306 568.449 47.649 567.591 47.649H419.759C418.901 47.649 418.205 48.3306 418.205 49.1714V75.3413C418.205 76.182 418.901 76.8633 419.759 76.8633H488.324H507.011H523.487C525.253 76.8633 525.649 79.2933 523.97 79.8326L494.262 89.3727C494.035 89.446 493.827 89.57 493.656 89.7347L414.677 165.917C414.38 166.203 414.213 166.594 414.213 167.002V190.159C414.213 191 414.909 191.681 415.767 191.681H569.689C570.547 191.681 571.242 191 571.242 190.159V163.989C571.242 163.149 570.547 162.467 569.689 162.467H480.351Z" fill="#008FF5"/>
</svg>
