<svg width="190" height="190" viewBox="0 0 190 190" fill="none" xmlns="http://www.w3.org/2000/svg">
<path d="M96.9636 147.643C89.268 147.643 82.5049 146.414 76.6749 143.957C70.8449 141.384 66.1808 137.874 62.6826 133.428C59.1848 128.982 57.0859 123.834 56.3862 117.985H78.9489C79.6482 121.377 81.5141 124.302 84.5456 126.759C87.694 129.099 91.7167 130.269 96.6141 130.269C101.511 130.269 105.068 129.275 107.283 127.286C109.615 125.297 110.781 123.016 110.781 120.441C110.781 116.698 109.149 114.182 105.884 112.895C102.619 111.491 98.0716 110.146 92.2412 108.859C88.5101 108.04 84.7207 107.046 80.8727 105.876C77.0247 104.706 73.4683 103.243 70.2035 101.488C67.0555 99.6163 64.4899 97.2763 62.5078 94.4685C60.5254 91.5434 59.5346 87.9752 59.5346 83.7633C59.5346 76.0417 62.5661 69.5483 68.6295 64.2833C74.8093 59.0186 83.4379 56.3862 94.5152 56.3862C104.776 56.3862 112.938 58.7845 119.002 63.5814C125.182 68.3783 128.854 74.9885 130.02 83.4123H108.857C107.575 76.9776 102.735 73.7603 94.3401 73.7603C90.1427 73.7603 86.8778 74.579 84.5456 76.2171C82.3302 77.8549 81.2225 79.9023 81.2225 82.3592C81.2225 84.9333 82.9134 86.9806 86.2947 88.5016C89.676 90.0225 94.1654 91.4266 99.7621 92.7135C105.825 94.1176 111.364 95.6967 116.378 97.4518C121.509 99.0896 125.59 101.605 128.621 104.998C131.653 108.274 133.169 113.012 133.169 119.213C133.285 124.595 131.886 129.45 128.971 133.779C126.056 138.108 121.858 141.501 116.378 143.957C110.898 146.414 104.426 147.643 96.9636 147.643Z" fill="black"/>
<path d="M150.834 30.6776C153.809 29.8912 156.544 32.6262 155.757 35.6005L148.68 62.3691C147.894 65.3435 144.176 66.3266 141.988 64.1386L122.296 44.4468C120.108 42.2589 121.091 38.5411 124.066 37.7547L150.834 30.6776Z" fill="black"/>
</svg>
