<svg width="123" height="16" viewBox="0 0 123 16" fill="none" xmlns="http://www.w3.org/2000/svg">
<path fill-rule="evenodd" clip-rule="evenodd" d="M92.7319 0.0640596C75.4393 0.245949 70.495 0.364271 60.9003 0.826155C50.9571 1.30481 43.8413 1.78462 32.5508 2.73771C29.9334 2.95866 27.1309 3.16835 23.8454 3.38899C11.7763 4.19949 9.4277 4.41546 5.52607 5.07332C3.59293 5.39935 1.9211 5.62496 0.984094 5.68646C0.151021 5.74107 0 5.77545 0 5.91047C0 6.02979 1.33239 6.13433 2.06115 6.07214C2.32231 6.04993 3.02987 5.99548 3.63358 5.95129C4.23728 5.90703 5.56581 5.78824 6.58586 5.6873C8.98788 5.44951 10.1412 5.37453 14.2694 5.18774C21.2093 4.87374 26.4518 4.572 32.8914 4.11593C35.2646 3.94783 38.4156 3.72467 39.8937 3.61997C51.1035 2.82587 64.7965 2.11776 73.1636 1.89957C83.3173 1.63466 114.839 1.40047 114.306 1.59377C114.095 1.67043 110.488 2.2406 108.326 2.53913C106.34 2.81338 103.021 3.20894 98.9393 3.65803C97.0033 3.87109 94.3462 4.16595 93.0347 4.31329C88.1078 4.86693 86.4851 5.03863 83.6858 5.30277C70.7903 6.51947 62.2721 7.57971 50.4159 9.44363C43.3686 10.5515 37.5924 11.8234 31.1463 13.6866C27.4814 14.7459 27.1243 14.9341 27.485 15.6161C27.7197 16.0598 29.5689 16.1173 33.2986 15.7968C40.1147 15.2112 46.5199 14.7569 52.7247 14.4192C56.6167 14.2074 57.1323 14.1718 61.0895 13.843C62.5676 13.7202 65.1224 13.5407 66.767 13.4442L69.7571 13.2687L65.7829 13.1996C59.7606 13.0947 53.3004 13.1011 51.1729 13.214C44.1292 13.5877 40.298 13.8754 34.0402 14.5002C32.5486 14.6492 31.2903 14.7582 31.2438 14.7426C30.7956 14.5914 40.8264 12.3072 45.6115 11.4708C56.4136 9.58241 67.5374 8.17348 84.6321 6.52828C86.1934 6.37802 89.3273 6.04932 91.5964 5.79789C93.8655 5.54639 97.4423 5.15044 99.5449 4.91785C107.638 4.02281 110.049 3.68943 117.826 2.39017C122.808 1.558 122.834 1.55088 122.97 1.0036C123.119 0.401876 122.72 0.128852 121.577 0.0508124C120.491 -0.0233983 100.157 -0.014057 92.7319 0.0640596ZM70.0798 13.208C70.1739 13.2263 70.3102 13.2256 70.3826 13.2065C70.4549 13.1873 70.3779 13.1723 70.2113 13.1732C70.0448 13.174 69.9856 13.1897 70.0798 13.208Z" fill="#008FF5"/>
</svg>
