<svg xmlns="http://www.w3.org/2000/svg" width="512" height="512" fill="none"><rect width="512" height="512" fill="#008FF5" rx="72"/><path fill="#fff" d="M345.346 108c-3.489 0-6.317 2.801-6.317 6.257v57.258a6.26 6.26 0 0 1-4.071 5.848l-153.423 57.811c-4.134 1.558-8.564-1.466-8.564-5.848V114.257c0-3.456-2.828-6.257-6.317-6.257H94.318c-3.49 0-6.318 2.801-6.318 6.257v283.486c0 3.456 2.829 6.257 6.318 6.257h72.336c3.489 0 6.317-2.801 6.317-6.257v-71.994a6.26 6.26 0 0 1 4.071-5.848l179.511-67.664c5.879-2.216 11.06 4.512 7.347 9.541l-23.653 32.04a6.212 6.212 0 0 0-1.218 3.693v100.232c0 3.456 2.828 6.257 6.317 6.257h72.336c3.49 0 6.318-2.801 6.318-6.257V114.257c0-3.456-2.828-6.257-6.318-6.257h-72.336Z"/></svg>