<svg width="179" height="179" viewBox="0 0 179 179" fill="none" xmlns="http://www.w3.org/2000/svg">
<path d="M89.2365 142.399C118.693 142.399 142.573 118.52 142.573 89.0628C142.573 59.6058 118.693 35.7262 89.2365 35.7262C59.7795 35.7262 35.8998 59.6058 35.8998 89.0628C35.8998 118.52 59.7795 142.399 89.2365 142.399Z" fill="#31A3DD"/>
<path d="M21.222 108.023C18.4182 108.022 15.7295 106.908 13.747 104.925C11.7644 102.943 10.6502 100.254 10.6493 97.4503V81.0224C10.6493 78.2183 11.7632 75.5291 13.746 73.5464C15.7287 71.5636 18.4179 70.4497 21.222 70.4497C24.026 70.4497 26.7152 71.5636 28.698 73.5464C30.6808 75.5291 31.7947 78.2183 31.7947 81.0224V97.4503C31.7938 100.254 30.6796 102.943 28.697 104.925C26.7144 106.908 24.0258 108.022 21.222 108.023V108.023Z" fill="#31A3DD"/>
<path d="M89.4105 147.51C87.7433 147.509 86.1048 147.944 84.6574 148.772C83.2099 149.599 82.0038 150.79 81.1583 152.227C69.5995 150.744 58.6687 146.12 49.5549 138.857C40.4411 131.595 33.4933 121.972 29.4673 111.036C27.3176 112.337 24.8517 113.023 22.3388 113.019H20.9472C29.9196 138.61 52.881 157.63 80.6365 160.918C81.3271 162.501 82.4329 163.867 83.8368 164.873C85.2407 165.879 86.8904 166.486 88.6112 166.631C90.3321 166.776 92.0602 166.453 93.6125 165.696C95.1648 164.939 96.4835 163.777 97.4292 162.332C98.3748 160.887 98.9121 159.213 98.9842 157.487C99.0564 155.762 98.6606 154.049 97.8389 152.53C97.0171 151.011 95.8 149.743 94.3163 148.859C92.8326 147.975 91.1375 147.509 89.4105 147.51V147.51Z" fill="#31A3DD"/>
<path d="M89.2365 16.6992C57.5393 16.6992 30.6153 37.0827 20.8149 65.454H22.3387C24.8108 65.4502 27.2378 66.1149 29.3629 67.3779C33.822 55.0776 41.9613 44.4491 52.674 36.9378C63.3867 29.4265 76.1529 25.3968 89.2365 25.3968C102.32 25.3968 115.086 29.4265 125.799 36.9378C136.512 44.4491 144.651 55.0776 149.11 67.3779C151.235 66.1149 153.662 65.4502 156.134 65.454H157.658C147.858 37.0827 120.934 16.6992 89.2365 16.6992Z" fill="#31A3DD"/>
<path d="M157.251 108.023C154.447 108.022 151.759 106.908 149.776 104.925C147.793 102.943 146.679 100.254 146.678 97.4503V81.0224C146.678 78.2183 147.792 75.5291 149.775 73.5464C151.758 71.5636 154.447 70.4497 157.251 70.4497C160.055 70.4497 162.744 71.5636 164.727 73.5464C166.71 75.5291 167.824 78.2183 167.824 81.0224V97.4503C167.823 100.254 166.709 102.943 164.726 104.925C162.743 106.908 160.055 108.022 157.251 108.023V108.023Z" fill="#31A3DD"/>
</svg>
