<svg width="1512" height="774" viewBox="0 0 1512 774" fill="none" xmlns="http://www.w3.org/2000/svg">
<g clip-path="url(#clip0_836_33360)">
<rect width="1512" height="774" fill="white"/>
<g clip-path="url(#clip1_836_33360)">
<rect width="1512" height="786" transform="matrix(-1 0 0 1 1512 -6)" fill="white"/>
<g opacity="0.7" clip-path="url(#clip2_836_33360)">
<rect width="1512" height="790" transform="translate(0 -16)" fill="white"/>
<rect width="471" height="471" rx="235.5" transform="matrix(-1 0 0 1 351 -16)" fill="#D8E9F8" fill-opacity="0.5"/>
<g opacity="0.5" filter="url(#filter0_f_836_33360)">
<path fill-rule="evenodd" clip-rule="evenodd" d="M1102.06 122.758C1144.43 117.149 1184.76 143.636 1218.52 169.848C1250.38 194.589 1267.35 231.382 1287.18 266.509C1308.94 305.037 1341.48 341.054 1340.15 385.279C1338.79 430.916 1314.82 475.683 1280.03 505.255C1247.03 533.309 1200.43 533.535 1157.66 540.407C1120.05 546.45 1083.46 548.075 1045.72 542.9C1002.05 536.913 946.587 543.824 920.971 507.955C894.906 471.457 922.976 420.951 926.716 376.258C929.554 342.35 926.754 308.392 940.286 277.172C953.997 245.539 978.928 222.07 1003.87 198.265C1034.35 169.167 1060.28 128.289 1102.06 122.758Z" fill="#0074CC"/>
</g>
<g clip-path="url(#clip3_836_33360)">
<rect x="1367" y="403" width="10" height="10" rx="5" transform="rotate(-90 1367 403)" fill="#0377FF" fill-opacity="0.5"/>
<rect x="1367" y="377" width="10" height="10" rx="5" transform="rotate(-90 1367 377)" fill="#0377FF" fill-opacity="0.5"/>
<rect x="1367" y="351" width="10" height="10" rx="5" transform="rotate(-90 1367 351)" fill="#0377FF" fill-opacity="0.5"/>
<rect x="1367" y="325" width="10" height="10" rx="5" transform="rotate(-90 1367 325)" fill="#0377FF" fill-opacity="0.5"/>
<rect x="1367" y="299" width="10" height="10" rx="5" transform="rotate(-90 1367 299)" fill="#0377FF" fill-opacity="0.5"/>
<rect x="1367" y="273" width="10" height="10" rx="5" transform="rotate(-90 1367 273)" fill="#0377FF" fill-opacity="0.5"/>
<rect x="1367" y="247" width="10" height="10" rx="5" transform="rotate(-90 1367 247)" fill="#0377FF" fill-opacity="0.5"/>
<rect x="1367" y="221" width="10" height="10" rx="5" transform="rotate(-90 1367 221)" fill="#0377FF" fill-opacity="0.5"/>
<rect x="1367" y="195" width="10" height="10" rx="5" transform="rotate(-90 1367 195)" fill="#0377FF" fill-opacity="0.5"/>
<rect x="1367" y="169" width="10" height="10" rx="5" transform="rotate(-90 1367 169)" fill="#0377FF" fill-opacity="0.5"/>
<rect x="1367" y="143" width="10" height="10" rx="5" transform="rotate(-90 1367 143)" fill="#0377FF" fill-opacity="0.5"/>
<rect x="1367" y="117" width="10" height="10" rx="5" transform="rotate(-90 1367 117)" fill="#0377FF" fill-opacity="0.5"/>
</g>
<g clip-path="url(#clip4_836_33360)">
<rect x="1393" y="403" width="10" height="10" rx="5" transform="rotate(-90 1393 403)" fill="#0377FF" fill-opacity="0.5"/>
<rect x="1393" y="377" width="10" height="10" rx="5" transform="rotate(-90 1393 377)" fill="#0377FF" fill-opacity="0.5"/>
<rect x="1393" y="351" width="10" height="10" rx="5" transform="rotate(-90 1393 351)" fill="#0377FF" fill-opacity="0.5"/>
<rect x="1393" y="325" width="10" height="10" rx="5" transform="rotate(-90 1393 325)" fill="#0377FF" fill-opacity="0.5"/>
<rect x="1393" y="299" width="10" height="10" rx="5" transform="rotate(-90 1393 299)" fill="#0377FF" fill-opacity="0.5"/>
<rect x="1393" y="273" width="10" height="10" rx="5" transform="rotate(-90 1393 273)" fill="#0377FF" fill-opacity="0.5"/>
<rect x="1393" y="247" width="10" height="10" rx="5" transform="rotate(-90 1393 247)" fill="#0377FF" fill-opacity="0.5"/>
<rect x="1393" y="221" width="10" height="10" rx="5" transform="rotate(-90 1393 221)" fill="#0377FF" fill-opacity="0.5"/>
<rect x="1393" y="195" width="10" height="10" rx="5" transform="rotate(-90 1393 195)" fill="#0377FF" fill-opacity="0.5"/>
<rect x="1393" y="169" width="10" height="10" rx="5" transform="rotate(-90 1393 169)" fill="#0377FF" fill-opacity="0.5"/>
<rect x="1393" y="143" width="10" height="10" rx="5" transform="rotate(-90 1393 143)" fill="#0377FF" fill-opacity="0.5"/>
<rect x="1393" y="117" width="10" height="10" rx="5" transform="rotate(-90 1393 117)" fill="#0377FF" fill-opacity="0.5"/>
</g>
<g clip-path="url(#clip5_836_33360)">
<rect x="1419" y="403" width="10" height="10" rx="5" transform="rotate(-90 1419 403)" fill="#0377FF" fill-opacity="0.5"/>
<rect x="1419" y="377" width="10" height="10" rx="5" transform="rotate(-90 1419 377)" fill="#0377FF" fill-opacity="0.5"/>
<rect x="1419" y="351" width="10" height="10" rx="5" transform="rotate(-90 1419 351)" fill="#0377FF" fill-opacity="0.5"/>
<rect x="1419" y="325" width="10" height="10" rx="5" transform="rotate(-90 1419 325)" fill="#0377FF" fill-opacity="0.5"/>
<rect x="1419" y="299" width="10" height="10" rx="5" transform="rotate(-90 1419 299)" fill="#0377FF" fill-opacity="0.5"/>
<rect x="1419" y="273" width="10" height="10" rx="5" transform="rotate(-90 1419 273)" fill="#0377FF" fill-opacity="0.5"/>
<rect x="1419" y="247" width="10" height="10" rx="5" transform="rotate(-90 1419 247)" fill="#0377FF" fill-opacity="0.5"/>
<rect x="1419" y="221" width="10" height="10" rx="5" transform="rotate(-90 1419 221)" fill="#0377FF" fill-opacity="0.5"/>
<rect x="1419" y="195" width="10" height="10" rx="5" transform="rotate(-90 1419 195)" fill="#0377FF" fill-opacity="0.5"/>
<rect x="1419" y="169" width="10" height="10" rx="5" transform="rotate(-90 1419 169)" fill="#0377FF" fill-opacity="0.5"/>
<rect x="1419" y="143" width="10" height="10" rx="5" transform="rotate(-90 1419 143)" fill="#0377FF" fill-opacity="0.5"/>
<rect x="1419" y="117" width="10" height="10" rx="5" transform="rotate(-90 1419 117)" fill="#0377FF" fill-opacity="0.5"/>
</g>
<g clip-path="url(#clip6_836_33360)">
<rect x="1445" y="403" width="10" height="10" rx="5" transform="rotate(-90 1445 403)" fill="#0377FF" fill-opacity="0.5"/>
<rect x="1445" y="377" width="10" height="10" rx="5" transform="rotate(-90 1445 377)" fill="#0377FF" fill-opacity="0.5"/>
<rect x="1445" y="351" width="10" height="10" rx="5" transform="rotate(-90 1445 351)" fill="#0377FF" fill-opacity="0.5"/>
<rect x="1445" y="325" width="10" height="10" rx="5" transform="rotate(-90 1445 325)" fill="#0377FF" fill-opacity="0.5"/>
<rect x="1445" y="299" width="10" height="10" rx="5" transform="rotate(-90 1445 299)" fill="#0377FF" fill-opacity="0.5"/>
<rect x="1445" y="273" width="10" height="10" rx="5" transform="rotate(-90 1445 273)" fill="#0377FF" fill-opacity="0.5"/>
<rect x="1445" y="247" width="10" height="10" rx="5" transform="rotate(-90 1445 247)" fill="#0377FF" fill-opacity="0.5"/>
<rect x="1445" y="221" width="10" height="10" rx="5" transform="rotate(-90 1445 221)" fill="#0377FF" fill-opacity="0.5"/>
<rect x="1445" y="195" width="10" height="10" rx="5" transform="rotate(-90 1445 195)" fill="#0377FF" fill-opacity="0.5"/>
<rect x="1445" y="169" width="10" height="10" rx="5" transform="rotate(-90 1445 169)" fill="#0377FF" fill-opacity="0.5"/>
<rect x="1445" y="143" width="10" height="10" rx="5" transform="rotate(-90 1445 143)" fill="#0377FF" fill-opacity="0.5"/>
<rect x="1445" y="117" width="10" height="10" rx="5" transform="rotate(-90 1445 117)" fill="#0377FF" fill-opacity="0.5"/>
</g>
<g clip-path="url(#clip7_836_33360)">
<rect x="1471" y="403" width="10" height="10" rx="5" transform="rotate(-90 1471 403)" fill="#0377FF" fill-opacity="0.5"/>
<rect x="1471" y="377" width="10" height="10" rx="5" transform="rotate(-90 1471 377)" fill="#0377FF" fill-opacity="0.5"/>
<rect x="1471" y="351" width="10" height="10" rx="5" transform="rotate(-90 1471 351)" fill="#0377FF" fill-opacity="0.5"/>
<rect x="1471" y="325" width="10" height="10" rx="5" transform="rotate(-90 1471 325)" fill="#0377FF" fill-opacity="0.5"/>
<rect x="1471" y="299" width="10" height="10" rx="5" transform="rotate(-90 1471 299)" fill="#0377FF" fill-opacity="0.5"/>
<rect x="1471" y="273" width="10" height="10" rx="5" transform="rotate(-90 1471 273)" fill="#0377FF" fill-opacity="0.5"/>
<rect x="1471" y="247" width="10" height="10" rx="5" transform="rotate(-90 1471 247)" fill="#0377FF" fill-opacity="0.5"/>
<rect x="1471" y="221" width="10" height="10" rx="5" transform="rotate(-90 1471 221)" fill="#0377FF" fill-opacity="0.5"/>
<rect x="1471" y="195" width="10" height="10" rx="5" transform="rotate(-90 1471 195)" fill="#0377FF" fill-opacity="0.5"/>
<rect x="1471" y="169" width="10" height="10" rx="5" transform="rotate(-90 1471 169)" fill="#0377FF" fill-opacity="0.5"/>
<rect x="1471" y="143" width="10" height="10" rx="5" transform="rotate(-90 1471 143)" fill="#0377FF" fill-opacity="0.5"/>
<rect x="1471" y="117" width="10" height="10" rx="5" transform="rotate(-90 1471 117)" fill="#0377FF" fill-opacity="0.5"/>
</g>
<g clip-path="url(#clip8_836_33360)">
<rect x="1497" y="403" width="10" height="10" rx="5" transform="rotate(-90 1497 403)" fill="#0377FF" fill-opacity="0.5"/>
<rect x="1497" y="377" width="10" height="10" rx="5" transform="rotate(-90 1497 377)" fill="#0377FF" fill-opacity="0.5"/>
<rect x="1497" y="351" width="10" height="10" rx="5" transform="rotate(-90 1497 351)" fill="#0377FF" fill-opacity="0.5"/>
<rect x="1497" y="325" width="10" height="10" rx="5" transform="rotate(-90 1497 325)" fill="#0377FF" fill-opacity="0.5"/>
<rect x="1497" y="299" width="10" height="10" rx="5" transform="rotate(-90 1497 299)" fill="#0377FF" fill-opacity="0.5"/>
<rect x="1497" y="273" width="10" height="10" rx="5" transform="rotate(-90 1497 273)" fill="#0377FF" fill-opacity="0.5"/>
<rect x="1497" y="247" width="10" height="10" rx="5" transform="rotate(-90 1497 247)" fill="#0377FF" fill-opacity="0.5"/>
<rect x="1497" y="221" width="10" height="10" rx="5" transform="rotate(-90 1497 221)" fill="#0377FF" fill-opacity="0.5"/>
<rect x="1497" y="195" width="10" height="10" rx="5" transform="rotate(-90 1497 195)" fill="#0377FF" fill-opacity="0.5"/>
<rect x="1497" y="169" width="10" height="10" rx="5" transform="rotate(-90 1497 169)" fill="#0377FF" fill-opacity="0.5"/>
<rect x="1497" y="143" width="10" height="10" rx="5" transform="rotate(-90 1497 143)" fill="#0377FF" fill-opacity="0.5"/>
<rect x="1497" y="117" width="10" height="10" rx="5" transform="rotate(-90 1497 117)" fill="#0377FF" fill-opacity="0.5"/>
</g>
</g>
</g>
</g>
<defs>
<filter id="filter0_f_836_33360" x="555.999" y="-232.001" width="1138.2" height="1132" filterUnits="userSpaceOnUse" color-interpolation-filters="sRGB">
<feFlood flood-opacity="0" result="BackgroundImageFix"/>
<feBlend mode="normal" in="SourceGraphic" in2="BackgroundImageFix" result="shape"/>
<feGaussianBlur stdDeviation="177.001" result="effect1_foregroundBlur_836_33360"/>
</filter>
<clipPath id="clip0_836_33360">
<rect width="1512" height="774" fill="white"/>
</clipPath>
<clipPath id="clip1_836_33360">
<rect width="1512" height="786" fill="white" transform="matrix(-1 0 0 1 1512 -6)"/>
</clipPath>
<clipPath id="clip2_836_33360">
<rect width="1512" height="790" fill="white" transform="translate(0 -16)"/>
</clipPath>
<clipPath id="clip3_836_33360">
<rect width="296" height="10" fill="white" transform="matrix(0 -1 1 0 1367 403)"/>
</clipPath>
<clipPath id="clip4_836_33360">
<rect width="296" height="10" fill="white" transform="matrix(0 -1 1 0 1393 403)"/>
</clipPath>
<clipPath id="clip5_836_33360">
<rect width="296" height="10" fill="white" transform="matrix(0 -1 1 0 1419 403)"/>
</clipPath>
<clipPath id="clip6_836_33360">
<rect width="296" height="10" fill="white" transform="matrix(0 -1 1 0 1445 403)"/>
</clipPath>
<clipPath id="clip7_836_33360">
<rect width="296" height="10" fill="white" transform="matrix(0 -1 1 0 1471 403)"/>
</clipPath>
<clipPath id="clip8_836_33360">
<rect width="296" height="10" fill="white" transform="matrix(0 -1 1 0 1497 403)"/>
</clipPath>
</defs>
</svg>
