<svg width="1512" height="709" viewBox="0 0 1512 709" fill="none" xmlns="http://www.w3.org/2000/svg">
<g clip-path="url(#clip0_803_32716)">
<rect width="1512" height="709" fill="#008FF5"/>
<circle cx="1304.5" cy="664" r="189" fill="white" fill-opacity="0.2"/>
<rect x="18.5" y="3.2627" width="6.31579" height="6.31579" rx="3.15789" fill="white" fill-opacity="0.2"/>
<rect x="38.8154" y="3.2627" width="6.31579" height="6.31579" rx="3.15789" fill="white" fill-opacity="0.2"/>
<rect x="59.1309" y="3.2627" width="6.31579" height="6.31579" rx="3.15789" fill="white" fill-opacity="0.2"/>
<rect x="79.4463" y="3.2627" width="6.31579" height="6.31579" rx="3.15789" fill="white" fill-opacity="0.2"/>
<rect x="99.7617" y="3.2627" width="6.31579" height="6.31579" rx="3.15789" fill="white" fill-opacity="0.2"/>
<rect x="120.077" y="3.2627" width="6.31579" height="6.31579" rx="3.15789" fill="white" fill-opacity="0.2"/>
<rect x="140.393" y="3.2627" width="6.31579" height="6.31579" rx="3.15789" fill="white" fill-opacity="0.2"/>
<rect x="160.708" y="3.2627" width="6.31579" height="6.31579" rx="3.15789" fill="white" fill-opacity="0.2"/>
<rect x="181.023" y="3.2627" width="6.31579" height="6.31579" rx="3.15789" fill="white" fill-opacity="0.2"/>
<rect x="201.339" y="3.2627" width="6.31579" height="6.31579" rx="3.15789" fill="white" fill-opacity="0.2"/>
<rect x="18.5" y="23.5781" width="6.31579" height="6.31579" rx="3.15789" fill="white" fill-opacity="0.2"/>
<rect x="38.8154" y="23.5781" width="6.31579" height="6.31579" rx="3.15789" fill="white" fill-opacity="0.2"/>
<rect x="59.1309" y="23.5781" width="6.31579" height="6.31579" rx="3.15789" fill="white" fill-opacity="0.2"/>
<rect x="79.4463" y="23.5781" width="6.31579" height="6.31579" rx="3.15789" fill="white" fill-opacity="0.2"/>
<rect x="99.7617" y="23.5781" width="6.31579" height="6.31579" rx="3.15789" fill="white" fill-opacity="0.2"/>
<rect x="120.077" y="23.5781" width="6.31579" height="6.31579" rx="3.15789" fill="white" fill-opacity="0.2"/>
<rect x="140.393" y="23.5781" width="6.31579" height="6.31579" rx="3.15789" fill="white" fill-opacity="0.2"/>
<rect x="160.708" y="23.5781" width="6.31579" height="6.31579" rx="3.15789" fill="white" fill-opacity="0.2"/>
<rect x="181.023" y="23.5781" width="6.31579" height="6.31579" rx="3.15789" fill="white" fill-opacity="0.2"/>
<rect x="201.339" y="23.5781" width="6.31579" height="6.31579" rx="3.15789" fill="white" fill-opacity="0.2"/>
<rect x="18.5" y="43.8936" width="6.31579" height="6.31579" rx="3.15789" fill="white" fill-opacity="0.2"/>
<rect x="38.8154" y="43.8936" width="6.31579" height="6.31579" rx="3.15789" fill="white" fill-opacity="0.2"/>
<rect x="59.1309" y="43.8936" width="6.31579" height="6.31579" rx="3.15789" fill="white" fill-opacity="0.2"/>
<rect x="79.4463" y="43.8936" width="6.31579" height="6.31579" rx="3.15789" fill="white" fill-opacity="0.2"/>
<rect x="99.7617" y="43.8936" width="6.31579" height="6.31579" rx="3.15789" fill="white" fill-opacity="0.2"/>
<rect x="120.077" y="43.8936" width="6.31579" height="6.31579" rx="3.15789" fill="white" fill-opacity="0.2"/>
<rect x="140.393" y="43.8936" width="6.31579" height="6.31579" rx="3.15789" fill="white" fill-opacity="0.2"/>
<rect x="160.708" y="43.8936" width="6.31579" height="6.31579" rx="3.15789" fill="white" fill-opacity="0.2"/>
<rect x="181.023" y="43.8936" width="6.31579" height="6.31579" rx="3.15789" fill="white" fill-opacity="0.2"/>
<rect x="201.339" y="43.8936" width="6.31579" height="6.31579" rx="3.15789" fill="white" fill-opacity="0.2"/>
<rect x="18.5" y="64.21" width="6.31579" height="6.31579" rx="3.15789" fill="white" fill-opacity="0.2"/>
<rect x="38.8154" y="64.21" width="6.31579" height="6.31579" rx="3.15789" fill="white" fill-opacity="0.2"/>
<rect x="59.1309" y="64.21" width="6.31579" height="6.31579" rx="3.15789" fill="white" fill-opacity="0.2"/>
<rect x="79.4463" y="64.21" width="6.31579" height="6.31579" rx="3.15789" fill="white" fill-opacity="0.2"/>
<rect x="99.7617" y="64.21" width="6.31579" height="6.31579" rx="3.15789" fill="white" fill-opacity="0.2"/>
<rect x="120.077" y="64.21" width="6.31579" height="6.31579" rx="3.15789" fill="white" fill-opacity="0.2"/>
<rect x="140.393" y="64.21" width="6.31579" height="6.31579" rx="3.15789" fill="white" fill-opacity="0.2"/>
<rect x="160.708" y="64.21" width="6.31579" height="6.31579" rx="3.15789" fill="white" fill-opacity="0.2"/>
<rect x="181.023" y="64.21" width="6.31579" height="6.31579" rx="3.15789" fill="white" fill-opacity="0.2"/>
<rect x="201.339" y="64.21" width="6.31579" height="6.31579" rx="3.15789" fill="white" fill-opacity="0.2"/>
<rect x="18.5" y="84.5254" width="6.31579" height="6.31579" rx="3.15789" fill="white" fill-opacity="0.2"/>
<rect x="38.8154" y="84.5254" width="6.31579" height="6.31579" rx="3.15789" fill="white" fill-opacity="0.2"/>
<rect x="59.1309" y="84.5254" width="6.31579" height="6.31579" rx="3.15789" fill="white" fill-opacity="0.2"/>
<rect x="79.4463" y="84.5254" width="6.31579" height="6.31579" rx="3.15789" fill="white" fill-opacity="0.2"/>
<rect x="99.7617" y="84.5254" width="6.31579" height="6.31579" rx="3.15789" fill="white" fill-opacity="0.2"/>
<rect x="120.077" y="84.5254" width="6.31579" height="6.31579" rx="3.15789" fill="white" fill-opacity="0.2"/>
<rect x="140.393" y="84.5254" width="6.31579" height="6.31579" rx="3.15789" fill="white" fill-opacity="0.2"/>
<rect x="160.708" y="84.5254" width="6.31579" height="6.31579" rx="3.15789" fill="white" fill-opacity="0.2"/>
<rect x="181.023" y="84.5254" width="6.31579" height="6.31579" rx="3.15789" fill="white" fill-opacity="0.2"/>
<rect x="201.339" y="84.5254" width="6.31579" height="6.31579" rx="3.15789" fill="white" fill-opacity="0.2"/>
<rect x="18.5" y="104.841" width="6.31579" height="6.31579" rx="3.15789" fill="white" fill-opacity="0.2"/>
<rect x="38.8154" y="104.841" width="6.31579" height="6.31579" rx="3.15789" fill="white" fill-opacity="0.2"/>
<rect x="59.1309" y="104.841" width="6.31579" height="6.31579" rx="3.15789" fill="white" fill-opacity="0.2"/>
<rect x="79.4463" y="104.841" width="6.31579" height="6.31579" rx="3.15789" fill="white" fill-opacity="0.2"/>
<rect x="99.7617" y="104.841" width="6.31579" height="6.31579" rx="3.15789" fill="white" fill-opacity="0.2"/>
<rect x="120.077" y="104.841" width="6.31579" height="6.31579" rx="3.15789" fill="white" fill-opacity="0.2"/>
<rect x="140.393" y="104.841" width="6.31579" height="6.31579" rx="3.15789" fill="white" fill-opacity="0.2"/>
<rect x="160.708" y="104.841" width="6.31579" height="6.31579" rx="3.15789" fill="white" fill-opacity="0.2"/>
<rect x="181.023" y="104.841" width="6.31579" height="6.31579" rx="3.15789" fill="white" fill-opacity="0.2"/>
<rect x="201.339" y="104.841" width="6.31579" height="6.31579" rx="3.15789" fill="white" fill-opacity="0.2"/>
<rect x="944.5" y="171" width="6.31579" height="6.31579" rx="3.15789" fill="white" fill-opacity="0.2"/>
<rect x="964.815" y="171" width="6.31579" height="6.31579" rx="3.15789" fill="white" fill-opacity="0.2"/>
<rect x="985.131" y="171" width="6.31579" height="6.31579" rx="3.15789" fill="white" fill-opacity="0.2"/>
<rect x="1005.45" y="171" width="6.31579" height="6.31579" rx="3.15789" fill="white" fill-opacity="0.2"/>
<rect x="1025.76" y="171" width="6.31579" height="6.31579" rx="3.15789" fill="white" fill-opacity="0.2"/>
<rect x="1046.08" y="171" width="6.31579" height="6.31579" rx="3.15789" fill="white" fill-opacity="0.2"/>
<rect x="1066.39" y="171" width="6.31579" height="6.31579" rx="3.15789" fill="white" fill-opacity="0.2"/>
<rect x="1086.71" y="171" width="6.31579" height="6.31579" rx="3.15789" fill="white" fill-opacity="0.2"/>
<rect x="1107.02" y="171" width="6.31579" height="6.31579" rx="3.15789" fill="white" fill-opacity="0.2"/>
<rect x="1127.34" y="171" width="6.31579" height="6.31579" rx="3.15789" fill="white" fill-opacity="0.2"/>
<rect x="944.5" y="191.315" width="6.31579" height="6.31579" rx="3.15789" fill="white" fill-opacity="0.2"/>
<rect x="964.815" y="191.315" width="6.31579" height="6.31579" rx="3.15789" fill="white" fill-opacity="0.2"/>
<rect x="985.131" y="191.315" width="6.31579" height="6.31579" rx="3.15789" fill="white" fill-opacity="0.2"/>
<rect x="1005.45" y="191.315" width="6.31579" height="6.31579" rx="3.15789" fill="white" fill-opacity="0.2"/>
<rect x="1025.76" y="191.315" width="6.31579" height="6.31579" rx="3.15789" fill="white" fill-opacity="0.2"/>
<rect x="1046.08" y="191.315" width="6.31579" height="6.31579" rx="3.15789" fill="white" fill-opacity="0.2"/>
<rect x="1066.39" y="191.315" width="6.31579" height="6.31579" rx="3.15789" fill="white" fill-opacity="0.2"/>
<rect x="1086.71" y="191.315" width="6.31579" height="6.31579" rx="3.15789" fill="white" fill-opacity="0.2"/>
<rect x="1107.02" y="191.315" width="6.31579" height="6.31579" rx="3.15789" fill="white" fill-opacity="0.2"/>
<rect x="1127.34" y="191.315" width="6.31579" height="6.31579" rx="3.15789" fill="white" fill-opacity="0.2"/>
<rect x="944.5" y="211.632" width="6.31579" height="6.31579" rx="3.15789" fill="white" fill-opacity="0.2"/>
<rect x="964.815" y="211.632" width="6.31579" height="6.31579" rx="3.15789" fill="white" fill-opacity="0.2"/>
<rect x="985.131" y="211.632" width="6.31579" height="6.31579" rx="3.15789" fill="white" fill-opacity="0.2"/>
<rect x="1005.45" y="211.632" width="6.31579" height="6.31579" rx="3.15789" fill="white" fill-opacity="0.2"/>
<rect x="1025.76" y="211.632" width="6.31579" height="6.31579" rx="3.15789" fill="white" fill-opacity="0.2"/>
<rect x="1046.08" y="211.632" width="6.31579" height="6.31579" rx="3.15789" fill="white" fill-opacity="0.2"/>
<rect x="1066.39" y="211.632" width="6.31579" height="6.31579" rx="3.15789" fill="white" fill-opacity="0.2"/>
<rect x="1086.71" y="211.632" width="6.31579" height="6.31579" rx="3.15789" fill="white" fill-opacity="0.2"/>
<rect x="1107.02" y="211.632" width="6.31579" height="6.31579" rx="3.15789" fill="white" fill-opacity="0.2"/>
<rect x="1127.34" y="211.632" width="6.31579" height="6.31579" rx="3.15789" fill="white" fill-opacity="0.2"/>
<rect x="944.5" y="231.947" width="6.31579" height="6.31579" rx="3.15789" fill="white" fill-opacity="0.2"/>
<rect x="964.815" y="231.947" width="6.31579" height="6.31579" rx="3.15789" fill="white" fill-opacity="0.2"/>
<rect x="985.131" y="231.947" width="6.31579" height="6.31579" rx="3.15789" fill="white" fill-opacity="0.2"/>
<rect x="1005.45" y="231.947" width="6.31579" height="6.31579" rx="3.15789" fill="white" fill-opacity="0.2"/>
<rect x="1025.76" y="231.947" width="6.31579" height="6.31579" rx="3.15789" fill="white" fill-opacity="0.2"/>
<rect x="1046.08" y="231.947" width="6.31579" height="6.31579" rx="3.15789" fill="white" fill-opacity="0.2"/>
<rect x="1066.39" y="231.947" width="6.31579" height="6.31579" rx="3.15789" fill="white" fill-opacity="0.2"/>
<rect x="1086.71" y="231.947" width="6.31579" height="6.31579" rx="3.15789" fill="white" fill-opacity="0.2"/>
<rect x="1107.02" y="231.947" width="6.31579" height="6.31579" rx="3.15789" fill="white" fill-opacity="0.2"/>
<rect x="1127.34" y="231.947" width="6.31579" height="6.31579" rx="3.15789" fill="white" fill-opacity="0.2"/>
<rect x="944.5" y="252.263" width="6.31579" height="6.31579" rx="3.15789" fill="white" fill-opacity="0.2"/>
<rect x="964.815" y="252.263" width="6.31579" height="6.31579" rx="3.15789" fill="white" fill-opacity="0.2"/>
<rect x="985.131" y="252.263" width="6.31579" height="6.31579" rx="3.15789" fill="white" fill-opacity="0.2"/>
<rect x="1005.45" y="252.263" width="6.31579" height="6.31579" rx="3.15789" fill="white" fill-opacity="0.2"/>
<rect x="1025.76" y="252.263" width="6.31579" height="6.31579" rx="3.15789" fill="white" fill-opacity="0.2"/>
<rect x="1046.08" y="252.263" width="6.31579" height="6.31579" rx="3.15789" fill="white" fill-opacity="0.2"/>
<rect x="1066.39" y="252.263" width="6.31579" height="6.31579" rx="3.15789" fill="white" fill-opacity="0.2"/>
<rect x="1086.71" y="252.263" width="6.31579" height="6.31579" rx="3.15789" fill="white" fill-opacity="0.2"/>
<rect x="1107.02" y="252.263" width="6.31579" height="6.31579" rx="3.15789" fill="white" fill-opacity="0.2"/>
<rect x="1127.34" y="252.263" width="6.31579" height="6.31579" rx="3.15789" fill="white" fill-opacity="0.2"/>
<rect x="944.5" y="272.578" width="6.31579" height="6.31579" rx="3.15789" fill="white" fill-opacity="0.2"/>
<rect x="964.815" y="272.578" width="6.31579" height="6.31579" rx="3.15789" fill="white" fill-opacity="0.2"/>
<rect x="985.131" y="272.578" width="6.31579" height="6.31579" rx="3.15789" fill="white" fill-opacity="0.2"/>
<rect x="1005.45" y="272.578" width="6.31579" height="6.31579" rx="3.15789" fill="white" fill-opacity="0.2"/>
<rect x="1025.76" y="272.578" width="6.31579" height="6.31579" rx="3.15789" fill="white" fill-opacity="0.2"/>
<rect x="1046.08" y="272.578" width="6.31579" height="6.31579" rx="3.15789" fill="white" fill-opacity="0.2"/>
<rect x="1066.39" y="272.578" width="6.31579" height="6.31579" rx="3.15789" fill="white" fill-opacity="0.2"/>
<rect x="1086.71" y="272.578" width="6.31579" height="6.31579" rx="3.15789" fill="white" fill-opacity="0.2"/>
<rect x="1107.02" y="272.578" width="6.31579" height="6.31579" rx="3.15789" fill="white" fill-opacity="0.2"/>
<rect x="1127.34" y="272.578" width="6.31579" height="6.31579" rx="3.15789" fill="white" fill-opacity="0.2"/>
<rect x="944.5" y="292.895" width="6.31579" height="6.31579" rx="3.15789" fill="white" fill-opacity="0.2"/>
<rect x="964.815" y="292.895" width="6.31579" height="6.31579" rx="3.15789" fill="white" fill-opacity="0.2"/>
<rect x="985.131" y="292.895" width="6.31579" height="6.31579" rx="3.15789" fill="white" fill-opacity="0.2"/>
<rect x="1005.45" y="292.895" width="6.31579" height="6.31579" rx="3.15789" fill="white" fill-opacity="0.2"/>
<rect x="1025.76" y="292.895" width="6.31579" height="6.31579" rx="3.15789" fill="white" fill-opacity="0.2"/>
<rect x="1046.08" y="292.895" width="6.31579" height="6.31579" rx="3.15789" fill="white" fill-opacity="0.2"/>
<rect x="1066.39" y="292.895" width="6.31579" height="6.31579" rx="3.15789" fill="white" fill-opacity="0.2"/>
<rect x="1086.71" y="292.895" width="6.31579" height="6.31579" rx="3.15789" fill="white" fill-opacity="0.2"/>
<rect x="1107.02" y="292.895" width="6.31579" height="6.31579" rx="3.15789" fill="white" fill-opacity="0.2"/>
<rect x="1127.34" y="292.895" width="6.31579" height="6.31579" rx="3.15789" fill="white" fill-opacity="0.2"/>
<rect x="944.5" y="313.21" width="6.31579" height="6.31579" rx="3.15789" fill="white" fill-opacity="0.2"/>
<rect x="964.815" y="313.21" width="6.31579" height="6.31579" rx="3.15789" fill="white" fill-opacity="0.2"/>
<rect x="985.131" y="313.21" width="6.31579" height="6.31579" rx="3.15789" fill="white" fill-opacity="0.2"/>
<rect x="1005.45" y="313.21" width="6.31579" height="6.31579" rx="3.15789" fill="white" fill-opacity="0.2"/>
<rect x="1025.76" y="313.21" width="6.31579" height="6.31579" rx="3.15789" fill="white" fill-opacity="0.2"/>
<rect x="1046.08" y="313.21" width="6.31579" height="6.31579" rx="3.15789" fill="white" fill-opacity="0.2"/>
<rect x="1066.39" y="313.21" width="6.31579" height="6.31579" rx="3.15789" fill="white" fill-opacity="0.2"/>
<rect x="1086.71" y="313.21" width="6.31579" height="6.31579" rx="3.15789" fill="white" fill-opacity="0.2"/>
<rect x="1107.02" y="313.21" width="6.31579" height="6.31579" rx="3.15789" fill="white" fill-opacity="0.2"/>
<rect x="1127.34" y="313.21" width="6.31579" height="6.31579" rx="3.15789" fill="white" fill-opacity="0.2"/>
<rect x="944.5" y="333.525" width="6.31579" height="6.31579" rx="3.15789" fill="white" fill-opacity="0.2"/>
<rect x="964.815" y="333.525" width="6.31579" height="6.31579" rx="3.15789" fill="white" fill-opacity="0.2"/>
<rect x="985.131" y="333.525" width="6.31579" height="6.31579" rx="3.15789" fill="white" fill-opacity="0.2"/>
<rect x="1005.45" y="333.525" width="6.31579" height="6.31579" rx="3.15789" fill="white" fill-opacity="0.2"/>
<rect x="1025.76" y="333.525" width="6.31579" height="6.31579" rx="3.15789" fill="white" fill-opacity="0.2"/>
<rect x="1046.08" y="333.525" width="6.31579" height="6.31579" rx="3.15789" fill="white" fill-opacity="0.2"/>
<rect x="1066.39" y="333.525" width="6.31579" height="6.31579" rx="3.15789" fill="white" fill-opacity="0.2"/>
<rect x="1086.71" y="333.525" width="6.31579" height="6.31579" rx="3.15789" fill="white" fill-opacity="0.2"/>
<rect x="1107.02" y="333.525" width="6.31579" height="6.31579" rx="3.15789" fill="white" fill-opacity="0.2"/>
<rect x="1127.34" y="333.525" width="6.31579" height="6.31579" rx="3.15789" fill="white" fill-opacity="0.2"/>
<rect x="944.5" y="353.841" width="6.31579" height="6.31579" rx="3.15789" fill="white" fill-opacity="0.2"/>
<rect x="964.815" y="353.841" width="6.31579" height="6.31579" rx="3.15789" fill="white" fill-opacity="0.2"/>
<rect x="985.131" y="353.841" width="6.31579" height="6.31579" rx="3.15789" fill="white" fill-opacity="0.2"/>
<rect x="1005.45" y="353.841" width="6.31579" height="6.31579" rx="3.15789" fill="white" fill-opacity="0.2"/>
<rect x="1025.76" y="353.841" width="6.31579" height="6.31579" rx="3.15789" fill="white" fill-opacity="0.2"/>
<rect x="1046.08" y="353.841" width="6.31579" height="6.31579" rx="3.15789" fill="white" fill-opacity="0.2"/>
<rect x="1066.39" y="353.841" width="6.31579" height="6.31579" rx="3.15789" fill="white" fill-opacity="0.2"/>
<rect x="1086.71" y="353.841" width="6.31579" height="6.31579" rx="3.15789" fill="white" fill-opacity="0.2"/>
<rect x="1107.02" y="353.841" width="6.31579" height="6.31579" rx="3.15789" fill="white" fill-opacity="0.2"/>
<rect x="1127.34" y="353.841" width="6.31579" height="6.31579" rx="3.15789" fill="white" fill-opacity="0.2"/>
<rect x="556.375" y="-144" width="6" height="187.502" rx="3" transform="rotate(40.3523 556.375 -144)" fill="white" fill-opacity="0.2"/>
</g>
<defs>
<clipPath id="clip0_803_32716">
<rect width="1512" height="709" fill="white"/>
</clipPath>
</defs>
</svg>
